<mxfile host="65bd71144e">
    <diagram id="sY0-nLNpXMrYDOU7Baq7" name="Seite-1">
        <mxGraphModel dx="1445" dy="941" grid="1" gridSize="10" guides="1" tooltips="1" connect="1" arrows="1" fold="1" page="1" pageScale="1" pageWidth="1654" pageHeight="1169" math="0" shadow="0">
            <root>
                <mxCell id="0"/>
                <mxCell id="1" parent="0"/>
                <mxCell id="104" value="&lt;font style=&quot;font-size: 24px;&quot;&gt;&lt;b style=&quot;font-size: 24px;&quot;&gt;DARION privat&lt;/b&gt;&lt;/font&gt;" style="rounded=0;whiteSpace=wrap;html=1;align=center;verticalAlign=top;fillColor=#fa6800;strokeColor=#C73500;fontColor=#000000;fontSize=24;" parent="1" vertex="1">
                    <mxGeometry x="2990" y="1361" width="560" height="1079" as="geometry"/>
                </mxCell>
                <mxCell id="103" value="&lt;font style=&quot;font-size: 24px;&quot;&gt;&lt;b style=&quot;font-size: 24px;&quot;&gt;INTEGRAION&lt;/b&gt;&lt;/font&gt;" style="rounded=0;whiteSpace=wrap;html=1;align=center;verticalAlign=top;fillColor=#e3c800;strokeColor=#B09500;fontColor=#000000;fontSize=24;" parent="1" vertex="1">
                    <mxGeometry x="1600" y="40" width="1200" height="1240" as="geometry"/>
                </mxCell>
                <mxCell id="101" value="&lt;font style=&quot;font-size: 24px;&quot;&gt;&lt;b style=&quot;font-size: 24px;&quot;&gt;PRODUKTION&lt;/b&gt;&lt;/font&gt;" style="rounded=0;whiteSpace=wrap;html=1;fillColor=#a0522d;strokeColor=#6D1F00;fontColor=#ffffff;align=center;verticalAlign=top;fontSize=24;" parent="1" vertex="1">
                    <mxGeometry x="80" y="40" width="1360" height="2520" as="geometry"/>
                </mxCell>
                <mxCell id="2" value="&lt;span lang=&quot;EN-US&quot; style=&quot;font-family: &amp;#34;liberation serif&amp;#34; , serif&quot;&gt;&lt;b style=&quot;font-size: 12pt&quot;&gt;STRATO: Managed Server XXLX-8&lt;/b&gt;&lt;b style=&quot;text-align: left&quot;&gt;&amp;nbsp;&lt;/b&gt;&lt;b style=&quot;font-size: 12pt&quot;&gt;&lt;br&gt;&lt;/b&gt;&lt;/span&gt;" style="rounded=1;whiteSpace=wrap;html=1;verticalAlign=top;fillColor=#f5f5f5;strokeColor=#666666;gradientColor=#b3b3b3;" parent="1" vertex="1">
                    <mxGeometry x="530" y="1354" width="470" height="241" as="geometry"/>
                </mxCell>
                <mxCell id="3" value="&lt;ul style=&quot;font-family: &amp;quot;liberation serif&amp;quot; , serif&quot;&gt;&lt;li style=&quot;&quot;&gt;&lt;span lang=&quot;EN-US&quot;&gt;&lt;b&gt;CPU:&lt;/b&gt;&amp;nbsp;AMD Opteron(tm) Processor 4180 (6 x 2,6 GHz)&lt;/span&gt;&lt;/li&gt;&lt;li style=&quot;&quot;&gt;&lt;span lang=&quot;EN-US&quot;&gt;&lt;b&gt;Arbeitsspeicher&lt;/b&gt;: 16GB&lt;/span&gt;&lt;/li&gt;&lt;li style=&quot;&quot;&gt;&lt;span lang=&quot;EN-US&quot;&gt;&lt;b&gt;Persistenz:&lt;/b&gt;&amp;nbsp;&lt;/span&gt;806 GB HDD&lt;/li&gt;&lt;li style=&quot;&quot;&gt;&lt;b&gt;OS:&lt;/b&gt;&amp;nbsp;&lt;/li&gt;&lt;/ul&gt;" style="rounded=0;whiteSpace=wrap;html=1;verticalAlign=middle;align=left;" parent="1" vertex="1">
                    <mxGeometry x="595" y="1385" width="340" height="110" as="geometry"/>
                </mxCell>
                <mxCell id="4" value="&lt;span style=&quot;font-size: 12.0pt ; font-family: &amp;#34;liberation serif&amp;#34; , serif&quot;&gt;&lt;b&gt;gradido.net: &lt;/b&gt;&lt;br&gt;gradido Hauptseite,&lt;br&gt;wordpress&lt;/span&gt;" style="rounded=1;whiteSpace=wrap;html=1;verticalAlign=top;fillColor=#e1d5e7;strokeColor=#9673a6;align=left;" parent="1" vertex="1">
                    <mxGeometry x="550" y="1505" width="150" height="80" as="geometry"/>
                </mxCell>
                <mxCell id="5" value="&lt;font face=&quot;liberation serif, serif&quot;&gt;&lt;span style=&quot;font-size: 16px&quot;&gt;21 weitere Domains&lt;/span&gt;&lt;/font&gt;" style="rounded=1;whiteSpace=wrap;html=1;verticalAlign=top;fillColor=#e1d5e7;strokeColor=#9673a6;align=left;" parent="1" vertex="1">
                    <mxGeometry x="710" y="1505" width="140" height="50" as="geometry"/>
                </mxCell>
                <mxCell id="218" style="edgeStyle=orthogonalEdgeStyle;rounded=0;orthogonalLoop=1;jettySize=auto;html=1;entryX=0.5;entryY=0;entryDx=0;entryDy=0;" edge="1" parent="1" source="6" target="208">
                    <mxGeometry relative="1" as="geometry"/>
                </mxCell>
                <mxCell id="6" value="&lt;span lang=&quot;EN-US&quot; style=&quot;font-family: &amp;#34;liberation serif&amp;#34; , serif&quot;&gt;&lt;b style=&quot;font-size: 12pt&quot;&gt;STRATO:&amp;nbsp;&lt;/b&gt;&lt;span lang=&quot;EN-US&quot; style=&quot;font-size: 12.0pt ; font-family: &amp;#34;liberation serif&amp;#34; , serif&quot;&gt;&lt;b&gt;Root Server Linux C4-47: Staging&lt;/b&gt;&lt;/span&gt;&lt;b style=&quot;font-size: 12pt&quot;&gt;&lt;br&gt;&lt;/b&gt;&lt;/span&gt;" style="rounded=1;whiteSpace=wrap;html=1;verticalAlign=top;fillColor=#f5f5f5;strokeColor=#666666;gradientColor=#b3b3b3;" parent="1" vertex="1">
                    <mxGeometry x="1654" y="436.5" width="470" height="401" as="geometry"/>
                </mxCell>
                <mxCell id="7" value="&lt;ul style=&quot;font-family: &amp;#34;liberation serif&amp;#34; , serif&quot;&gt;&lt;li&gt;&lt;span lang=&quot;EN-US&quot;&gt;&lt;b&gt;CPU:&lt;/b&gt;&amp;nbsp;&lt;/span&gt;AMD Opteronâ„¢ 1385 (4 x 2,7 GHz)&lt;/li&gt;&lt;li&gt;&lt;span lang=&quot;EN-US&quot;&gt;&lt;b&gt;Arbeitsspeicher&lt;/b&gt;:&amp;nbsp;&lt;/span&gt;4 GB DDR 2 / 8 GB Swap&lt;/li&gt;&lt;li&gt;&lt;span lang=&quot;EN-US&quot;&gt;&lt;b&gt;Persistenz:&lt;/b&gt;&amp;nbsp;&lt;/span&gt;2 x 500 GB HDD (Raid 1)&lt;/li&gt;&lt;li&gt;&lt;b&gt;OS:&lt;/b&gt; Ubuntu 20.04 LTS 64bit&lt;/li&gt;&lt;li&gt;&lt;span lang=&quot;EN-US&quot; style=&quot;font-family: &amp;#34;liberation serif&amp;#34; , serif&quot;&gt;&lt;font style=&quot;font-size: 12px&quot;&gt;&lt;b&gt;IP/Port:&lt;/b&gt; 85.214.157.229:1618&lt;/font&gt;&lt;/span&gt;&lt;br&gt;&lt;/li&gt;&lt;/ul&gt;" style="rounded=0;whiteSpace=wrap;html=1;verticalAlign=middle;labelPosition=center;verticalLabelPosition=middle;align=left;spacing=0;spacingTop=0;" parent="1" vertex="1">
                    <mxGeometry x="1719" y="467.5" width="365" height="109" as="geometry"/>
                </mxCell>
                <mxCell id="8" value="&lt;span lang=&quot;EN-US&quot; style=&quot;font-size: 12px; font-family: &amp;quot;liberation serif&amp;quot;, serif;&quot;&gt;nginx 1.18.0 (Ubuntu)&lt;br style=&quot;font-size: 12px;&quot;&gt;Port: 80 + 443&lt;/span&gt;" style="rounded=1;whiteSpace=wrap;html=1;verticalAlign=top;gradientColor=#97d077;fillColor=#d5e8d4;strokeColor=#82b366;align=left;fontSize=12;" parent="1" vertex="1">
                    <mxGeometry x="1674" y="587.5" width="120" height="40" as="geometry"/>
                </mxCell>
                <mxCell id="9" value="&lt;span lang=&quot;EN-US&quot; style=&quot;font-size: 12px; font-family: &amp;quot;liberation serif&amp;quot;, serif;&quot;&gt;php-fpm7.4&lt;/span&gt;" style="rounded=1;whiteSpace=wrap;html=1;verticalAlign=top;gradientColor=#97d077;fillColor=#d5e8d4;strokeColor=#82b366;align=left;fontSize=12;" parent="1" vertex="1">
                    <mxGeometry x="1801" y="587.5" width="63" height="29" as="geometry"/>
                </mxCell>
                <mxCell id="10" value="&lt;span lang=&quot;EN-US&quot; style=&quot;font-size: 12px; font-family: &amp;quot;liberation serif&amp;quot;, serif;&quot;&gt;mariadb&amp;nbsp; Ver 15.1 &lt;br style=&quot;font-size: 12px;&quot;&gt;Distrib 10.3.31-MariaDB&lt;br style=&quot;font-size: 12px;&quot;&gt;Port: 3306&lt;/span&gt;" style="rounded=1;whiteSpace=wrap;html=1;verticalAlign=top;gradientColor=#97d077;fillColor=#d5e8d4;strokeColor=#82b366;align=left;fontSize=12;" parent="1" vertex="1">
                    <mxGeometry x="1894" y="636.25" width="130" height="50" as="geometry"/>
                </mxCell>
                <mxCell id="11" value="&lt;span lang=&quot;EN-US&quot; style=&quot;font-size: 12px; font-family: &amp;quot;liberation serif&amp;quot;, serif;&quot;&gt;ufw 0.36&lt;/span&gt;" style="rounded=1;whiteSpace=wrap;html=1;verticalAlign=top;gradientColor=#97d077;fillColor=#d5e8d4;strokeColor=#82b366;align=left;fontSize=12;" parent="1" vertex="1">
                    <mxGeometry x="1870" y="587.5" width="63" height="30" as="geometry"/>
                </mxCell>
                <mxCell id="12" value="&lt;span lang=&quot;EN-US&quot; style=&quot;font-size: 12px; font-family: &amp;quot;liberation serif&amp;quot;, serif;&quot;&gt;node v12.19.0&lt;/span&gt;" style="rounded=1;whiteSpace=wrap;html=1;verticalAlign=top;gradientColor=#97d077;fillColor=#d5e8d4;strokeColor=#82b366;align=left;fontSize=12;" parent="1" vertex="1">
                    <mxGeometry x="1944" y="587.5" width="80" height="30" as="geometry"/>
                </mxCell>
                <mxCell id="13" value="&lt;span lang=&quot;EN-US&quot; style=&quot;font-size: 12px; font-family: &amp;quot;liberation serif&amp;quot;, serif;&quot;&gt;Gradido Backend &lt;br style=&quot;font-size: 12px;&quot;&gt;Port: 4000&lt;/span&gt;" style="rounded=1;whiteSpace=wrap;html=1;verticalAlign=top;gradientColor=#97d077;fillColor=#d5e8d4;strokeColor=#82b366;align=left;fontSize=12;" parent="1" vertex="1">
                    <mxGeometry x="1674" y="636.25" width="90" height="51.25" as="geometry"/>
                </mxCell>
                <mxCell id="14" value="&lt;span lang=&quot;EN-US&quot; style=&quot;font-size: 12px; font-family: &amp;quot;liberation serif&amp;quot;, serif;&quot;&gt;Gradido Login Server &lt;br style=&quot;font-size: 12px;&quot;&gt;HTTP Port: 1200&lt;br style=&quot;font-size: 12px;&quot;&gt;JSON: 1201&lt;/span&gt;" style="rounded=1;whiteSpace=wrap;html=1;verticalAlign=top;gradientColor=#97d077;fillColor=#d5e8d4;strokeColor=#82b366;align=left;fontSize=12;" parent="1" vertex="1">
                    <mxGeometry x="1771" y="636.25" width="110" height="51" as="geometry"/>
                </mxCell>
                <mxCell id="15" value="&lt;span lang=&quot;EN-US&quot; style=&quot;font-size: 12px ; font-family: &amp;#34;liberation serif&amp;#34; , serif&quot;&gt;&lt;b&gt;gdt.gradido.net:&lt;/b&gt; GDT-Server for testing&lt;/span&gt;" style="rounded=1;whiteSpace=wrap;html=1;verticalAlign=top;fillColor=#e1d5e7;strokeColor=#9673a6;align=left;fontSize=12;" parent="1" vertex="1">
                    <mxGeometry x="1674" y="697.5" width="120" height="40" as="geometry"/>
                </mxCell>
                <mxCell id="16" value="&lt;span lang=&quot;EN-US&quot; style=&quot;font-family: &amp;#34;liberation serif&amp;#34; , serif&quot;&gt;&lt;font style=&quot;font-size: 12px&quot;&gt;&lt;b&gt;stage1.gradido.net:&lt;/b&gt; Auto-Deployed Gradido Setup on master branch&lt;/font&gt;&lt;/span&gt;" style="rounded=1;whiteSpace=wrap;html=1;verticalAlign=top;fillColor=#e1d5e7;strokeColor=#9673a6;align=left;fontSize=12;" parent="1" vertex="1">
                    <mxGeometry x="1674" y="747.5" width="120" height="70" as="geometry"/>
                </mxCell>
                <mxCell id="17" value="&lt;span lang=&quot;EN-US&quot; style=&quot;font-family: &amp;#34;liberation serif&amp;#34; , serif&quot;&gt;&lt;font style=&quot;font-size: 12px&quot;&gt;&lt;b&gt;stagelive.gradido.net:&lt;/b&gt; Test with Live Data (dbs deleted&lt;/font&gt;&lt;/span&gt;" style="rounded=1;whiteSpace=wrap;html=1;verticalAlign=top;fillColor=#e1d5e7;strokeColor=#9673a6;align=left;fontSize=12;" parent="1" vertex="1">
                    <mxGeometry x="1804" y="747.5" width="110" height="70" as="geometry"/>
                </mxCell>
                <mxCell id="18" value="&lt;span lang=&quot;EN-US&quot; style=&quot;font-family: &amp;#34;liberation serif&amp;#34; , serif&quot;&gt;&lt;font style=&quot;font-size: 12px&quot;&gt;&lt;b&gt;staging.gradido.net:&lt;/b&gt;&lt;/font&gt;&lt;/span&gt;" style="rounded=1;whiteSpace=wrap;html=1;verticalAlign=top;fillColor=#e1d5e7;strokeColor=#9673a6;align=left;fontSize=12;" parent="1" vertex="1">
                    <mxGeometry x="1804" y="697.5" width="110" height="40" as="geometry"/>
                </mxCell>
                <mxCell id="19" value="&lt;span lang=&quot;EN-US&quot; style=&quot;font-family: &amp;#34;liberation serif&amp;#34; , serif&quot;&gt;&lt;font style=&quot;font-size: 12px&quot;&gt;Login via ssh key or password&lt;/font&gt;&lt;/span&gt;" style="rounded=1;whiteSpace=wrap;html=1;verticalAlign=top;fillColor=#f5f5f5;strokeColor=#666666;align=left;fontSize=12;fontColor=#333333;" parent="1" vertex="1">
                    <mxGeometry x="1974" y="727.5" width="110" height="40" as="geometry"/>
                </mxCell>
                <mxCell id="20" value="&lt;span lang=&quot;EN-US&quot; style=&quot;font-family: &amp;#34;liberation serif&amp;#34; , serif&quot;&gt;&lt;font style=&quot;font-size: 12px&quot;&gt;non standard ssh-port&lt;/font&gt;&lt;/span&gt;" style="rounded=1;whiteSpace=wrap;html=1;verticalAlign=top;fillColor=#f5f5f5;strokeColor=#666666;align=left;fontSize=12;fontColor=#333333;" parent="1" vertex="1">
                    <mxGeometry x="1974" y="777.5" width="110" height="40" as="geometry"/>
                </mxCell>
                <mxCell id="21" value="&lt;span lang=&quot;EN-US&quot; style=&quot;font-family: &amp;#34;liberation serif&amp;#34; , serif&quot;&gt;&lt;b style=&quot;font-size: 12pt&quot;&gt;STRATO:&amp;nbsp;&lt;/b&gt;&lt;span lang=&quot;EN-US&quot; style=&quot;font-size: 12.0pt ; font-family: &amp;#34;liberation serif&amp;#34; , serif&quot;&gt;&lt;b&gt;Root Server Linux C4-40: Support&lt;/b&gt;&lt;/span&gt;&lt;b style=&quot;font-size: 12pt&quot;&gt;&lt;br&gt;&lt;/b&gt;&lt;/span&gt;" style="rounded=1;whiteSpace=wrap;html=1;verticalAlign=top;fillColor=#f5f5f5;strokeColor=#666666;gradientColor=#b3b3b3;" parent="1" vertex="1">
                    <mxGeometry x="530" y="1635" width="470" height="440" as="geometry"/>
                </mxCell>
                <mxCell id="22" value="&lt;ul style=&quot;font-family: &amp;#34;liberation serif&amp;#34; , serif&quot;&gt;&lt;li&gt;&lt;span lang=&quot;EN-US&quot;&gt;&lt;b&gt;CPU:&lt;/b&gt;&amp;nbsp;&lt;/span&gt;AMD Opteronâ„¢ 1389 (4 x 2,9 GHz)&lt;/li&gt;&lt;li&gt;&lt;span lang=&quot;EN-US&quot;&gt;&lt;b&gt;Arbeitsspeicher&lt;/b&gt;: 8&lt;/span&gt;&amp;nbsp;GB DDR 2 / 8 GB Swap&lt;/li&gt;&lt;li&gt;&lt;span lang=&quot;EN-US&quot;&gt;&lt;b&gt;Persistenz:&lt;/b&gt;&amp;nbsp;&lt;/span&gt;2 x 1 TB HDD (Raid 1)&lt;/li&gt;&lt;li&gt;&lt;b&gt;OS:&lt;/b&gt; Ubuntu 18.04 LTS 64bit&lt;/li&gt;&lt;li&gt;&lt;span lang=&quot;EN-US&quot; style=&quot;font-family: &amp;#34;liberation serif&amp;#34; , serif&quot;&gt;&lt;font style=&quot;font-size: 12px&quot;&gt;&lt;b&gt;IP/Port:&lt;/b&gt;&amp;nbsp;&lt;/font&gt;&lt;/span&gt;85.214.26.213: 11771&lt;br&gt;&lt;/li&gt;&lt;/ul&gt;" style="rounded=0;whiteSpace=wrap;html=1;verticalAlign=middle;labelPosition=center;verticalLabelPosition=middle;align=left;spacing=0;spacingTop=0;" parent="1" vertex="1">
                    <mxGeometry x="595" y="1666" width="365" height="109" as="geometry"/>
                </mxCell>
                <mxCell id="23" value="&lt;span lang=&quot;EN-US&quot; style=&quot;font-size: 12px ; font-family: &amp;#34;liberation serif&amp;#34; , serif&quot;&gt;nginx 1.14.0 (Ubuntu)&lt;br style=&quot;font-size: 12px&quot;&gt;Port: 80 + 443&lt;/span&gt;" style="rounded=1;whiteSpace=wrap;html=1;verticalAlign=top;gradientColor=#97d077;fillColor=#d5e8d4;strokeColor=#82b366;align=left;fontSize=12;" parent="1" vertex="1">
                    <mxGeometry x="550" y="1786" width="120" height="40" as="geometry"/>
                </mxCell>
                <mxCell id="24" value="&lt;span lang=&quot;EN-US&quot; style=&quot;font-size: 12px ; font-family: &amp;#34;liberation serif&amp;#34; , serif&quot;&gt;php-fpm7.2&lt;/span&gt;" style="rounded=1;whiteSpace=wrap;html=1;verticalAlign=top;gradientColor=#97d077;fillColor=#d5e8d4;strokeColor=#82b366;align=left;fontSize=12;" parent="1" vertex="1">
                    <mxGeometry x="677" y="1786" width="63" height="29" as="geometry"/>
                </mxCell>
                <mxCell id="25" value="&lt;span lang=&quot;EN-US&quot; style=&quot;font-size: 12px ; font-family: &amp;#34;liberation serif&amp;#34; , serif&quot;&gt;mariadb&amp;nbsp; Ver 15.1 &lt;br style=&quot;font-size: 12px&quot;&gt;Distrib 10.1.44-MariaDB&lt;br style=&quot;font-size: 12px&quot;&gt;Port: 3306&lt;/span&gt;" style="rounded=1;whiteSpace=wrap;html=1;verticalAlign=top;gradientColor=#97d077;fillColor=#d5e8d4;strokeColor=#82b366;align=left;fontSize=12;" parent="1" vertex="1">
                    <mxGeometry x="820" y="1786" width="130" height="50" as="geometry"/>
                </mxCell>
                <mxCell id="26" value="&lt;span lang=&quot;EN-US&quot; style=&quot;font-size: 12px; font-family: &amp;quot;liberation serif&amp;quot;, serif;&quot;&gt;ufw 0.36&lt;/span&gt;" style="rounded=1;whiteSpace=wrap;html=1;verticalAlign=top;gradientColor=#97d077;fillColor=#d5e8d4;strokeColor=#82b366;align=left;fontSize=12;" parent="1" vertex="1">
                    <mxGeometry x="746" y="1786" width="63" height="30" as="geometry"/>
                </mxCell>
                <mxCell id="28" value="&lt;span lang=&quot;EN-US&quot; style=&quot;font-family: &amp;#34;liberation serif&amp;#34; , serif&quot;&gt;&lt;font style=&quot;font-size: 12px&quot;&gt;Elasticsearch version 7.8.0, Port 9200&lt;/font&gt;&lt;/span&gt;" style="rounded=1;whiteSpace=wrap;html=1;verticalAlign=top;gradientColor=#97d077;fillColor=#d5e8d4;strokeColor=#82b366;align=left;fontSize=12;" parent="1" vertex="1">
                    <mxGeometry x="550" y="1845" width="90" height="51.25" as="geometry"/>
                </mxCell>
                <mxCell id="29" value="&lt;span lang=&quot;EN-US&quot; style=&quot;font-family: &amp;#34;liberation serif&amp;#34; , serif&quot;&gt;&lt;font style=&quot;font-size: 12px&quot;&gt;Zammad (install: Puma 3.12.6, Port 3000, Postgresql, Port 5432, redis, Port 6379)&lt;/font&gt;&lt;/span&gt;" style="rounded=1;whiteSpace=wrap;html=1;verticalAlign=top;gradientColor=#97d077;fillColor=#d5e8d4;strokeColor=#82b366;align=left;fontSize=12;" parent="1" vertex="1">
                    <mxGeometry x="647" y="1845" width="163" height="50.25" as="geometry"/>
                </mxCell>
                <mxCell id="30" value="&lt;span style=&quot;font-family: &amp;#34;liberation serif&amp;#34; , serif&quot;&gt;&lt;font style=&quot;font-size: 12px&quot;&gt;&lt;b&gt;kanban.gradido.net:&lt;/b&gt; Wekan Kanban Board, anfangs fÃ¼r Sprintplanung genutzt&lt;/font&gt;&lt;/span&gt;" style="rounded=1;whiteSpace=wrap;html=1;verticalAlign=top;fillColor=#e1d5e7;strokeColor=#9673a6;align=left;fontSize=12;" parent="1" vertex="1">
                    <mxGeometry x="550" y="1915" width="130" height="70" as="geometry"/>
                </mxCell>
                <mxCell id="31" value="&lt;span style=&quot;font-family: &amp;#34;liberation serif&amp;#34; , serif&quot;&gt;&lt;font style=&quot;font-size: 12px&quot;&gt;&lt;b&gt;support.gradido.net: &lt;/b&gt;Zammad&lt;br&gt;Support-Tool, lief nicht mit 4 GB Arbeitsspeicher&lt;/font&gt;&lt;/span&gt;" style="rounded=1;whiteSpace=wrap;html=1;verticalAlign=top;fillColor=#e1d5e7;strokeColor=#9673a6;align=left;fontSize=12;" parent="1" vertex="1">
                    <mxGeometry x="690" y="1965" width="110" height="80" as="geometry"/>
                </mxCell>
                <mxCell id="33" value="&lt;span style=&quot;font-family: &amp;#34;liberation serif&amp;#34; , serif&quot;&gt;&lt;font style=&quot;font-size: 12px&quot;&gt;&lt;b&gt;wolke.gradido.net:&lt;/b&gt;&lt;br&gt;Nextcloud&lt;/font&gt;&lt;/span&gt;" style="rounded=1;whiteSpace=wrap;html=1;verticalAlign=top;fillColor=#e1d5e7;strokeColor=#9673a6;align=left;fontSize=12;" parent="1" vertex="1">
                    <mxGeometry x="690" y="1915" width="110" height="40" as="geometry"/>
                </mxCell>
                <mxCell id="34" value="&lt;span lang=&quot;EN-US&quot; style=&quot;font-family: &amp;#34;liberation serif&amp;#34; , serif&quot;&gt;&lt;font style=&quot;font-size: 12px&quot;&gt;Login via password&lt;/font&gt;&lt;/span&gt;" style="rounded=1;whiteSpace=wrap;html=1;verticalAlign=top;align=left;fontSize=12;fillColor=#f5f5f5;strokeColor=#666666;fontColor=#333333;" parent="1" vertex="1">
                    <mxGeometry x="850" y="1925" width="110" height="40" as="geometry"/>
                </mxCell>
                <mxCell id="35" value="&lt;span lang=&quot;EN-US&quot; style=&quot;font-family: &amp;#34;liberation serif&amp;#34; , serif&quot;&gt;&lt;font style=&quot;font-size: 12px&quot;&gt;non standard ssh-port&lt;/font&gt;&lt;/span&gt;" style="rounded=1;whiteSpace=wrap;html=1;verticalAlign=top;align=left;fontSize=12;fillColor=#f5f5f5;strokeColor=#666666;fontColor=#333333;" parent="1" vertex="1">
                    <mxGeometry x="850" y="1976" width="110" height="40" as="geometry"/>
                </mxCell>
                <mxCell id="36" value="&lt;span lang=&quot;EN-US&quot; style=&quot;font-family: &amp;#34;liberation serif&amp;#34; , serif&quot;&gt;&lt;font style=&quot;font-size: 12px&quot;&gt;no ssh&lt;/font&gt;&lt;/span&gt;" style="rounded=1;whiteSpace=wrap;html=1;verticalAlign=top;fillColor=#f5f5f5;strokeColor=#666666;align=left;fontSize=12;fontColor=#333333;" parent="1" vertex="1">
                    <mxGeometry x="870" y="1505" width="90" height="40" as="geometry"/>
                </mxCell>
                <mxCell id="37" value="&lt;span lang=&quot;EN-US&quot; style=&quot;font-family: &amp;#34;liberation serif&amp;#34; , serif&quot;&gt;&lt;font style=&quot;font-size: 12px&quot;&gt;loolwsd (part of nextlcoud for edit documents in Browser) Port: 9982 + 9983&lt;/font&gt;&lt;/span&gt;" style="rounded=1;whiteSpace=wrap;html=1;verticalAlign=top;gradientColor=#97d077;fillColor=#d5e8d4;strokeColor=#82b366;align=left;fontSize=12;" parent="1" vertex="1">
                    <mxGeometry x="820" y="1845.25" width="150" height="50" as="geometry"/>
                </mxCell>
                <mxCell id="38" value="&lt;span lang=&quot;EN-US&quot; style=&quot;font-family: &amp;#34;liberation serif&amp;#34; , serif&quot;&gt;&lt;b style=&quot;font-size: 12pt&quot;&gt;STRATO:&amp;nbsp;&lt;/b&gt;&lt;span style=&quot;font-size: 12.0pt ; font-family: &amp;#34;liberation serif&amp;#34; , serif&quot;&gt;&lt;b&gt;VPS Linux V5-49: git + gdt&lt;/b&gt;&lt;/span&gt;&lt;b style=&quot;font-size: 12pt&quot;&gt;&lt;br&gt;&lt;/b&gt;&lt;/span&gt;" style="rounded=1;whiteSpace=wrap;html=1;verticalAlign=top;fillColor=#f5f5f5;strokeColor=#666666;gradientColor=#b3b3b3;" parent="1" vertex="1">
                    <mxGeometry x="530" y="2115" width="470" height="400" as="geometry"/>
                </mxCell>
                <mxCell id="39" value="&lt;ul style=&quot;font-family: &amp;#34;liberation serif&amp;#34; , serif&quot;&gt;&lt;li&gt;&lt;span lang=&quot;EN-US&quot;&gt;&lt;b&gt;CPU:&lt;/b&gt;&amp;nbsp;1x&lt;/span&gt;&amp;nbsp;vCore (2 GHz)&lt;/li&gt;&lt;li&gt;&lt;span lang=&quot;EN-US&quot;&gt;&lt;b&gt;Arbeitsspeicher&lt;/b&gt;: 1&lt;/span&gt;&amp;nbsp;GB / kein Swap&lt;/li&gt;&lt;li&gt;&lt;span lang=&quot;EN-US&quot;&gt;&lt;b&gt;Persistenz:&lt;/b&gt;&amp;nbsp;30&lt;/span&gt;&amp;nbsp;GB HDD&lt;/li&gt;&lt;li&gt;&lt;b&gt;OS:&lt;/b&gt; Ubuntu 18.04 LTS 64bit&lt;/li&gt;&lt;li&gt;&lt;span lang=&quot;EN-US&quot; style=&quot;font-family: &amp;#34;liberation serif&amp;#34; , serif&quot;&gt;&lt;font style=&quot;font-size: 12px&quot;&gt;&lt;b&gt;IP/Port:&lt;/b&gt;&amp;nbsp;&lt;/font&gt;&lt;/span&gt;85.214.134.190: 19152&lt;br&gt;&lt;/li&gt;&lt;/ul&gt;" style="rounded=0;whiteSpace=wrap;html=1;verticalAlign=middle;labelPosition=center;verticalLabelPosition=middle;align=left;spacing=0;spacingTop=0;" parent="1" vertex="1">
                    <mxGeometry x="595" y="2146" width="365" height="109" as="geometry"/>
                </mxCell>
                <mxCell id="40" value="&lt;span lang=&quot;EN-US&quot; style=&quot;font-size: 12px ; font-family: &amp;#34;liberation serif&amp;#34; , serif&quot;&gt;nginx 1.14.0 (Ubuntu)&lt;br style=&quot;font-size: 12px&quot;&gt;Port: 80 + 443&lt;/span&gt;" style="rounded=1;whiteSpace=wrap;html=1;verticalAlign=top;gradientColor=#97d077;fillColor=#d5e8d4;strokeColor=#82b366;align=left;fontSize=12;" parent="1" vertex="1">
                    <mxGeometry x="550" y="2266" width="120" height="40" as="geometry"/>
                </mxCell>
                <mxCell id="41" value="&lt;span lang=&quot;EN-US&quot; style=&quot;font-size: 12px ; font-family: &amp;#34;liberation serif&amp;#34; , serif&quot;&gt;php-fpm7.2&lt;/span&gt;" style="rounded=1;whiteSpace=wrap;html=1;verticalAlign=top;gradientColor=#97d077;fillColor=#d5e8d4;strokeColor=#82b366;align=left;fontSize=12;" parent="1" vertex="1">
                    <mxGeometry x="677" y="2266" width="63" height="29" as="geometry"/>
                </mxCell>
                <mxCell id="42" value="&lt;span lang=&quot;EN-US&quot; style=&quot;font-size: 12px ; font-family: &amp;#34;liberation serif&amp;#34; , serif&quot;&gt;mariadb&amp;nbsp; Ver 15.1 &lt;br style=&quot;font-size: 12px&quot;&gt;Distrib 10.4.12-MariaDB&lt;br style=&quot;font-size: 12px&quot;&gt;Port: 3306&lt;/span&gt;" style="rounded=1;whiteSpace=wrap;html=1;verticalAlign=top;gradientColor=#97d077;fillColor=#d5e8d4;strokeColor=#82b366;align=left;fontSize=12;" parent="1" vertex="1">
                    <mxGeometry x="650" y="2325" width="130" height="50" as="geometry"/>
                </mxCell>
                <mxCell id="43" value="&lt;span lang=&quot;EN-US&quot; style=&quot;font-size: 12px; font-family: &amp;quot;liberation serif&amp;quot;, serif;&quot;&gt;ufw 0.36&lt;/span&gt;" style="rounded=1;whiteSpace=wrap;html=1;verticalAlign=top;gradientColor=#97d077;fillColor=#d5e8d4;strokeColor=#82b366;align=left;fontSize=12;" parent="1" vertex="1">
                    <mxGeometry x="746" y="2266" width="63" height="30" as="geometry"/>
                </mxCell>
                <mxCell id="44" value="&lt;span lang=&quot;EN-US&quot; style=&quot;font-family: &amp;#34;liberation serif&amp;#34; , serif&quot;&gt;&lt;font style=&quot;font-size: 12px&quot;&gt;MongoDB version v3.6.3, Port: 27017&lt;/font&gt;&lt;/span&gt;" style="rounded=1;whiteSpace=wrap;html=1;verticalAlign=top;gradientColor=#97d077;fillColor=#d5e8d4;strokeColor=#82b366;align=left;fontSize=12;" parent="1" vertex="1">
                    <mxGeometry x="550" y="2325" width="90" height="51.25" as="geometry"/>
                </mxCell>
                <mxCell id="45" value="&lt;span lang=&quot;EN-US&quot; style=&quot;font-family: &amp;#34;liberation serif&amp;#34; , serif&quot;&gt;&lt;font style=&quot;font-size: 12px&quot;&gt;OpenSSL 1.1.1&lt;/font&gt;&lt;/span&gt;" style="rounded=1;whiteSpace=wrap;html=1;verticalAlign=top;gradientColor=#97d077;fillColor=#d5e8d4;strokeColor=#82b366;align=left;fontSize=12;" parent="1" vertex="1">
                    <mxGeometry x="817" y="2266" width="83" height="30" as="geometry"/>
                </mxCell>
                <mxCell id="46" value="&lt;span lang=&quot;EN-US&quot; style=&quot;font-family: &amp;#34;liberation serif&amp;#34; , serif&quot;&gt;&lt;font style=&quot;font-size: 12px&quot;&gt;&lt;b&gt;gdt.gradido.com: &lt;/b&gt;&lt;br&gt;Main Production GDT-Server&lt;/font&gt;&lt;/span&gt;" style="rounded=1;whiteSpace=wrap;html=1;verticalAlign=top;fillColor=#e1d5e7;strokeColor=#9673a6;align=left;fontSize=12;" parent="1" vertex="1">
                    <mxGeometry x="550" y="2395" width="130" height="70" as="geometry"/>
                </mxCell>
                <mxCell id="49" value="&lt;span lang=&quot;EN-US&quot; style=&quot;font-family: &amp;#34;liberation serif&amp;#34; , serif&quot;&gt;&lt;font style=&quot;font-size: 12px&quot;&gt;admin login only via password&lt;/font&gt;&lt;/span&gt;" style="rounded=1;whiteSpace=wrap;html=1;verticalAlign=top;align=left;fontSize=12;fillColor=#f5f5f5;strokeColor=#666666;fontColor=#333333;" parent="1" vertex="1">
                    <mxGeometry x="730" y="2404" width="110" height="40" as="geometry"/>
                </mxCell>
                <mxCell id="50" value="&lt;span lang=&quot;EN-US&quot; style=&quot;font-family: &amp;#34;liberation serif&amp;#34; , serif&quot;&gt;&lt;font style=&quot;font-size: 12px&quot;&gt;non standard ssh-port&lt;/font&gt;&lt;/span&gt;" style="rounded=1;whiteSpace=wrap;html=1;verticalAlign=top;align=left;fontSize=12;fillColor=#f5f5f5;strokeColor=#666666;fontColor=#333333;" parent="1" vertex="1">
                    <mxGeometry x="850" y="2404" width="110" height="40" as="geometry"/>
                </mxCell>
                <mxCell id="52" value="&lt;span lang=&quot;EN-US&quot; style=&quot;font-family: &amp;#34;liberation serif&amp;#34; , serif&quot;&gt;&lt;font style=&quot;font-size: 12px&quot;&gt;git main repository before we used github&lt;/font&gt;&lt;/span&gt;" style="rounded=1;whiteSpace=wrap;html=1;verticalAlign=top;gradientColor=#97d077;fillColor=#d5e8d4;strokeColor=#82b366;align=left;fontSize=12;" parent="1" vertex="1">
                    <mxGeometry x="793.5" y="2325" width="130" height="50" as="geometry"/>
                </mxCell>
                <mxCell id="53" value="&lt;span lang=&quot;EN-US&quot; style=&quot;font-family: &amp;#34;liberation serif&amp;#34; , serif&quot;&gt;&lt;font style=&quot;font-size: 12px&quot;&gt;git login also via ssh-key&lt;/font&gt;&lt;/span&gt;" style="rounded=1;whiteSpace=wrap;html=1;verticalAlign=top;align=left;fontSize=12;fillColor=#f5f5f5;strokeColor=#666666;fontColor=#333333;" parent="1" vertex="1">
                    <mxGeometry x="730" y="2454" width="110" height="40" as="geometry"/>
                </mxCell>
                <mxCell id="54" value="&lt;span lang=&quot;EN-US&quot; style=&quot;font-family: &amp;#34;liberation serif&amp;#34; , serif&quot;&gt;&lt;font style=&quot;font-size: 10px&quot;&gt;10 Tage Backup&lt;/font&gt;&lt;/span&gt;" style="rounded=1;whiteSpace=wrap;html=1;verticalAlign=top;align=left;fontSize=12;fillColor=#f5f5f5;strokeColor=#666666;fontColor=#333333;" parent="1" vertex="1">
                    <mxGeometry x="850" y="2454" width="110" height="40" as="geometry"/>
                </mxCell>
                <mxCell id="71" value="&lt;span lang=&quot;EN-US&quot; style=&quot;font-family: &amp;#34;liberation serif&amp;#34; , serif&quot;&gt;&lt;b&gt;&lt;span style=&quot;font-size: 12pt&quot;&gt;DARIO privat:&amp;nbsp;&lt;/span&gt;&lt;span lang=&quot;EN-US&quot; style=&quot;font-size: 12.0pt ; font-family: &amp;#34;liberation serif&amp;#34; , serif&quot;&gt;RockPi 4&lt;/span&gt;&lt;/b&gt;&lt;b style=&quot;font-size: 12pt&quot;&gt;&lt;br&gt;&lt;/b&gt;&lt;/span&gt;" style="rounded=1;whiteSpace=wrap;html=1;verticalAlign=top;fillColor=#f5f5f5;strokeColor=#666666;gradientColor=#b3b3b3;" parent="1" vertex="1">
                    <mxGeometry x="3030" y="1440" width="470" height="280" as="geometry"/>
                </mxCell>
                <mxCell id="72" value="&lt;ul style=&quot;font-family: &amp;#34;liberation serif&amp;#34; , serif&quot;&gt;&lt;li&gt;&lt;span lang=&quot;EN-US&quot;&gt;&lt;b&gt;CPU:&lt;/b&gt;&amp;nbsp;&lt;/span&gt;Rockchip RK3399 (2x ARM A72&lt;br/&gt;1.8 GHz, 4x ARM A53 1.4 GHz)&lt;/li&gt;&lt;li&gt;&lt;span lang=&quot;EN-US&quot;&gt;&lt;b&gt;Arbeitsspeicher&lt;/b&gt;:&amp;nbsp;&lt;/span&gt;4 GB Ram / 8 GB Swap&lt;/li&gt;&lt;li&gt;&lt;span lang=&quot;EN-US&quot;&gt;&lt;b&gt;Persistenz:&lt;/b&gt;&amp;nbsp;&lt;/span&gt;MicroSD + NVME SSD&lt;/li&gt;&lt;li&gt;&lt;b&gt;OS:&lt;/b&gt; Ubuntu 18.04.1 LTS&lt;/li&gt;&lt;li&gt;&lt;span lang=&quot;EN-US&quot; style=&quot;font-family: &amp;#34;liberation serif&amp;#34; , serif&quot;&gt;&lt;font style=&quot;font-size: 12px&quot;&gt;&lt;b&gt;IP/Port:&lt;/b&gt;&amp;nbsp;&lt;/font&gt;&lt;/span&gt;&lt;br&gt;&lt;/li&gt;&lt;/ul&gt;" style="rounded=0;whiteSpace=wrap;html=1;verticalAlign=middle;labelPosition=center;verticalLabelPosition=middle;align=left;spacing=0;spacingTop=0;" parent="1" vertex="1">
                    <mxGeometry x="3095" y="1471" width="365" height="109" as="geometry"/>
                </mxCell>
                <mxCell id="79" value="&lt;span style=&quot;font-family: &amp;#34;liberation serif&amp;#34; , serif&quot;&gt;&lt;font style=&quot;font-size: 12px&quot;&gt;privater Hauptwebserver, &lt;br&gt;auch zum Testen von Gradido (Community-Server)&lt;/font&gt;&lt;/span&gt;" style="rounded=1;whiteSpace=wrap;html=1;verticalAlign=top;align=left;fontSize=12;fillColor=#f5f5f5;strokeColor=#666666;fontColor=#333333;" parent="1" vertex="1">
                    <mxGeometry x="3060" y="1594.5" width="280" height="40" as="geometry"/>
                </mxCell>
                <mxCell id="81" value="&lt;span lang=&quot;EN-US&quot; style=&quot;font-family: &amp;#34;liberation serif&amp;#34; , serif&quot;&gt;&lt;font style=&quot;font-size: 12px&quot;&gt;GDT Production Backup Server&lt;/font&gt;&lt;/span&gt;" style="rounded=1;whiteSpace=wrap;html=1;verticalAlign=top;align=left;fontSize=12;fillColor=#f5f5f5;strokeColor=#666666;fontColor=#333333;" parent="1" vertex="1">
                    <mxGeometry x="3060" y="1644.5" width="280" height="41" as="geometry"/>
                </mxCell>
                <mxCell id="84" value="&lt;span lang=&quot;EN-US&quot; style=&quot;font-family: &amp;#34;liberation serif&amp;#34; , serif&quot;&gt;&lt;b&gt;&lt;span style=&quot;font-size: 12pt&quot;&gt;DARIO privat:&amp;nbsp;&lt;/span&gt;&lt;/b&gt;&lt;span lang=&quot;EN-US&quot; style=&quot;font-size: 12.0pt ; font-family: &amp;#34;liberation serif&amp;#34; , serif&quot;&gt;&lt;b&gt;J4125B-ITX&lt;/b&gt;&lt;/span&gt;&lt;b style=&quot;font-size: 12pt&quot;&gt;&lt;br&gt;&lt;/b&gt;&lt;/span&gt;" style="rounded=1;whiteSpace=wrap;html=1;verticalAlign=top;fillColor=#f5f5f5;strokeColor=#666666;gradientColor=#b3b3b3;" parent="1" vertex="1">
                    <mxGeometry x="3030" y="1760" width="470" height="280" as="geometry"/>
                </mxCell>
                <mxCell id="85" value="&lt;ul style=&quot;font-family: &amp;#34;liberation serif&amp;#34; , serif&quot;&gt;&lt;li&gt;&lt;span lang=&quot;EN-US&quot;&gt;&lt;b&gt;CPU:&lt;/b&gt;&amp;nbsp;&lt;/span&gt;IntelÂ® CeleronÂ® Prozessor&lt;br/&gt;J4125 4x 2,7 GHz&lt;/li&gt;&lt;li&gt;&lt;span lang=&quot;EN-US&quot;&gt;&lt;b&gt;Arbeitsspeicher&lt;/b&gt;:&amp;nbsp;&lt;/span&gt;32 GB Ram DDR4 / 64 GB Swap&lt;/li&gt;&lt;li&gt;&lt;span lang=&quot;EN-US&quot;&gt;&lt;b&gt;Persistenz:&lt;/b&gt;&amp;nbsp;&lt;/span&gt;SSD&lt;/li&gt;&lt;li&gt;&lt;b&gt;OS:&lt;/b&gt; Ubuntu 18.04.5 LTS&lt;/li&gt;&lt;li&gt;&lt;span lang=&quot;EN-US&quot; style=&quot;font-family: &amp;#34;liberation serif&amp;#34; , serif&quot;&gt;&lt;font style=&quot;font-size: 12px&quot;&gt;&lt;b&gt;IP/Port:&lt;/b&gt;&amp;nbsp;&lt;/font&gt;&lt;/span&gt;&lt;br&gt;&lt;/li&gt;&lt;/ul&gt;" style="rounded=0;whiteSpace=wrap;html=1;verticalAlign=middle;labelPosition=center;verticalLabelPosition=middle;align=left;spacing=0;spacingTop=0;" parent="1" vertex="1">
                    <mxGeometry x="3095" y="1791" width="365" height="109" as="geometry"/>
                </mxCell>
                <mxCell id="86" value="&lt;span style=&quot;font-family: &amp;#34;liberation serif&amp;#34; , serif&quot;&gt;u.a. um den Login-Server fÃ¼r den Production-Server zu kompilieren,&amp;nbsp;&lt;br&gt;weil hier das gleiche Betriebssystem lÃ¤uft wie auf dem Production Server&lt;/span&gt;" style="rounded=1;whiteSpace=wrap;html=1;verticalAlign=top;align=left;fontSize=12;fillColor=#f5f5f5;strokeColor=#666666;fontColor=#333333;" parent="1" vertex="1">
                    <mxGeometry x="3060" y="1914.5" width="420" height="40" as="geometry"/>
                </mxCell>
                <mxCell id="87" value="&lt;p class=&quot;Textbody&quot;&gt;Login nur im Lokalen Netzwerk Ã¼ber Passwort&lt;/p&gt;" style="rounded=1;whiteSpace=wrap;html=1;verticalAlign=top;align=left;fontSize=12;fillColor=#f5f5f5;strokeColor=#666666;fontColor=#333333;" parent="1" vertex="1">
                    <mxGeometry x="3060" y="1964.5" width="280" height="41" as="geometry"/>
                </mxCell>
                <mxCell id="88" value="&lt;span lang=&quot;EN-US&quot; style=&quot;font-family: &amp;#34;liberation serif&amp;#34; , serif&quot;&gt;&lt;b&gt;&lt;span style=&quot;font-size: 12pt&quot;&gt;1fire:&amp;nbsp;&lt;/span&gt;&lt;span lang=&quot;EN-US&quot; style=&quot;font-size: 12.0pt ; font-family: &amp;#34;liberation serif&amp;#34; , serif&quot;&gt;VPS Linux: DARIO privat&lt;/span&gt;&lt;/b&gt;&lt;b style=&quot;font-size: 12pt&quot;&gt;&lt;br&gt;&lt;/b&gt;&lt;/span&gt;" style="rounded=1;whiteSpace=wrap;html=1;verticalAlign=top;fillColor=#f5f5f5;strokeColor=#666666;gradientColor=#b3b3b3;" parent="1" vertex="1">
                    <mxGeometry x="3030" y="2084.5" width="470" height="320" as="geometry"/>
                </mxCell>
                <mxCell id="89" value="&lt;ul style=&quot;font-family: &amp;#34;liberation serif&amp;#34; , serif&quot;&gt;&lt;li&gt;&lt;span lang=&quot;EN-US&quot;&gt;&lt;b&gt;CPU:&lt;/b&gt;&amp;nbsp;1x&lt;/span&gt;&amp;nbsp;vCore (2,4 GHz)&lt;/li&gt;&lt;li&gt;&lt;span lang=&quot;EN-US&quot;&gt;&lt;b&gt;Arbeitsspeicher&lt;/b&gt;: 1&lt;/span&gt;&amp;nbsp;GB / 500 MB Swap&lt;/li&gt;&lt;li&gt;&lt;span lang=&quot;EN-US&quot;&gt;&lt;b&gt;Persistenz:&lt;/b&gt;&amp;nbsp;?&lt;/span&gt;&lt;/li&gt;&lt;li&gt;&lt;b&gt;OS:&lt;/b&gt; Ubuntu 18.04.6 LTS&lt;/li&gt;&lt;li&gt;&lt;span lang=&quot;EN-US&quot; style=&quot;font-family: &amp;#34;liberation serif&amp;#34; , serif&quot;&gt;&lt;font style=&quot;font-size: 12px&quot;&gt;&lt;b&gt;IP/Port:&lt;/b&gt;&amp;nbsp;&lt;/font&gt;&lt;/span&gt;62.113.241.71&lt;br&gt;&lt;/li&gt;&lt;/ul&gt;" style="rounded=0;whiteSpace=wrap;html=1;verticalAlign=middle;labelPosition=center;verticalLabelPosition=middle;align=left;spacing=0;spacingTop=0;" parent="1" vertex="1">
                    <mxGeometry x="3095" y="2115.5" width="365" height="109" as="geometry"/>
                </mxCell>
                <mxCell id="95" value="&lt;span style=&quot;font-family: &amp;#34;liberation serif&amp;#34; , serif&quot;&gt;&lt;b&gt;gradido.com:&lt;/b&gt;&lt;br&gt;SprachabhÃ¤ngiger Link zur Elopage Registrierung, gibt publisher-id weiter wenn angegeben, z.B. &lt;a href=&quot;https://gradido.com/173817&quot;&gt;&lt;span&gt;https://gradido.com/173817&lt;/span&gt;&lt;/a&gt;)&lt;/span&gt;" style="rounded=1;whiteSpace=wrap;html=1;verticalAlign=top;fillColor=#e1d5e7;strokeColor=#9673a6;align=left;fontSize=12;" parent="1" vertex="1">
                    <mxGeometry x="3050" y="2234.5" width="250" height="70" as="geometry"/>
                </mxCell>
                <mxCell id="96" value="&lt;span lang=&quot;EN-US&quot; style=&quot;font-family: &amp;#34;liberation serif&amp;#34; , serif&quot;&gt;&lt;font style=&quot;font-size: 12px&quot;&gt;login via ssh-key&lt;/font&gt;&lt;/span&gt;" style="rounded=1;whiteSpace=wrap;html=1;verticalAlign=top;align=left;fontSize=12;fillColor=#f5f5f5;strokeColor=#666666;fontColor=#333333;" parent="1" vertex="1">
                    <mxGeometry x="3350" y="2234.5" width="110" height="40" as="geometry"/>
                </mxCell>
                <mxCell id="97" value="&lt;span lang=&quot;EN-US&quot; style=&quot;font-family: &amp;#34;liberation serif&amp;#34; , serif&quot;&gt;&lt;font style=&quot;font-size: 12px&quot;&gt;non standard ssh-port&lt;/font&gt;&lt;/span&gt;" style="rounded=1;whiteSpace=wrap;html=1;verticalAlign=top;align=left;fontSize=12;fillColor=#f5f5f5;strokeColor=#666666;fontColor=#333333;" parent="1" vertex="1">
                    <mxGeometry x="3350" y="2279" width="110" height="40" as="geometry"/>
                </mxCell>
                <mxCell id="98" value="&lt;span style=&quot;font-family: &amp;#34;liberation serif&amp;#34; , serif&quot;&gt;&lt;font style=&quot;font-size: 12px&quot;&gt;arbeitet fÃ¼r mich als dns-server um meine Domains auf meinen Anschluss (wechselnde IP) zu routen&lt;/font&gt;&lt;/span&gt;" style="rounded=1;whiteSpace=wrap;html=1;verticalAlign=top;align=left;fontSize=12;fillColor=#f5f5f5;strokeColor=#666666;fontColor=#333333;" parent="1" vertex="1">
                    <mxGeometry x="3230" y="2330" width="230" height="51" as="geometry"/>
                </mxCell>
                <mxCell id="161" style="edgeStyle=orthogonalEdgeStyle;rounded=0;orthogonalLoop=1;jettySize=auto;html=1;" edge="1" parent="1" source="105" target="131">
                    <mxGeometry relative="1" as="geometry"/>
                </mxCell>
                <mxCell id="105" value="&lt;span lang=&quot;EN-US&quot; style=&quot;font-family: &amp;#34;liberation serif&amp;#34; , serif&quot;&gt;&lt;b&gt;&lt;span style=&quot;font-size: 12pt&quot;&gt;Provider?:&amp;nbsp;&lt;/span&gt;&lt;span lang=&quot;EN-US&quot; style=&quot;font-size: 12.0pt ; font-family: &amp;#34;liberation serif&amp;#34; , serif&quot;&gt;VPS Linux: Main Production AppServer&lt;/span&gt;&lt;/b&gt;&lt;b style=&quot;font-size: 12pt&quot;&gt;&lt;br&gt;&lt;/b&gt;&lt;/span&gt;" style="rounded=1;whiteSpace=wrap;html=1;verticalAlign=top;fillColor=#f5f5f5;strokeColor=#666666;gradientColor=#b3b3b3;" vertex="1" parent="1">
                    <mxGeometry x="260" y="461" width="470" height="349" as="geometry"/>
                </mxCell>
                <mxCell id="106" value="&lt;ul style=&quot;font-family: &amp;#34;liberation serif&amp;#34; , serif&quot;&gt;&lt;li&gt;&lt;span lang=&quot;EN-US&quot;&gt;&lt;b&gt;CPU:&lt;/b&gt;&amp;nbsp;1x&lt;/span&gt;&amp;nbsp;vCore (2,4 GHz)&lt;/li&gt;&lt;li&gt;&lt;span lang=&quot;EN-US&quot;&gt;&lt;b&gt;Arbeitsspeicher&lt;/b&gt;: 1&lt;/span&gt;&amp;nbsp;GB / kein Swap&lt;/li&gt;&lt;li&gt;&lt;span lang=&quot;EN-US&quot;&gt;&lt;b&gt;Persistenz:&lt;/b&gt;&amp;nbsp;?&lt;/span&gt;&lt;/li&gt;&lt;li&gt;&lt;b&gt;OS:&lt;/b&gt; Ubuntu 18.04.1 LTS&lt;/li&gt;&lt;li&gt;&lt;span lang=&quot;EN-US&quot; style=&quot;font-family: &amp;#34;liberation serif&amp;#34; , serif&quot;&gt;&lt;font style=&quot;font-size: 12px&quot;&gt;&lt;b&gt;IP/Port:&lt;/b&gt;&amp;nbsp;&lt;/font&gt;&lt;/span&gt;212.83.56.124: 17611&lt;br&gt;&lt;/li&gt;&lt;/ul&gt;" style="rounded=0;whiteSpace=wrap;html=1;verticalAlign=middle;labelPosition=center;verticalLabelPosition=middle;align=left;spacing=0;spacingTop=0;" vertex="1" parent="1">
                    <mxGeometry x="325" y="492" width="365" height="109" as="geometry"/>
                </mxCell>
                <mxCell id="107" value="&lt;span lang=&quot;EN-US&quot; style=&quot;font-size: 12px ; font-family: &amp;#34;liberation serif&amp;#34; , serif&quot;&gt;nginx 1.14.0 (Ubuntu)&lt;br style=&quot;font-size: 12px&quot;&gt;Port: 80 + 443&lt;/span&gt;" style="rounded=1;whiteSpace=wrap;html=1;verticalAlign=top;gradientColor=#97d077;fillColor=#d5e8d4;strokeColor=#82b366;align=left;fontSize=12;" vertex="1" parent="1">
                    <mxGeometry x="280" y="612" width="120" height="40" as="geometry"/>
                </mxCell>
                <mxCell id="108" value="&lt;span lang=&quot;EN-US&quot; style=&quot;font-size: 12px ; font-family: &amp;#34;liberation serif&amp;#34; , serif&quot;&gt;php-fpm7.2&lt;/span&gt;" style="rounded=1;whiteSpace=wrap;html=1;verticalAlign=top;gradientColor=#97d077;fillColor=#d5e8d4;strokeColor=#82b366;align=left;fontSize=12;" vertex="1" parent="1">
                    <mxGeometry x="407" y="612" width="63" height="29" as="geometry"/>
                </mxCell>
                <mxCell id="109" value="&lt;span lang=&quot;EN-US&quot; style=&quot;font-size: 12px ; font-family: &amp;#34;liberation serif&amp;#34; , serif&quot;&gt;ufw 0.35&lt;/span&gt;" style="rounded=1;whiteSpace=wrap;html=1;verticalAlign=top;gradientColor=#97d077;fillColor=#d5e8d4;strokeColor=#82b366;align=left;fontSize=12;" vertex="1" parent="1">
                    <mxGeometry x="476" y="612" width="63" height="30" as="geometry"/>
                </mxCell>
                <mxCell id="111" value="&lt;span lang=&quot;EN-US&quot; style=&quot;font-family: &amp;#34;liberation serif&amp;#34; , serif&quot;&gt;&lt;font style=&quot;font-size: 12px&quot;&gt;node v12.13.1&lt;/font&gt;&lt;/span&gt;" style="rounded=1;whiteSpace=wrap;html=1;verticalAlign=top;gradientColor=#97d077;fillColor=#d5e8d4;strokeColor=#82b366;align=left;fontSize=12;" vertex="1" parent="1">
                    <mxGeometry x="547" y="612" width="83" height="30" as="geometry"/>
                </mxCell>
                <mxCell id="112" value="&lt;span lang=&quot;EN-US&quot; style=&quot;font-family: &amp;#34;liberation serif&amp;#34; , serif&quot;&gt;&lt;font style=&quot;font-size: 12px&quot;&gt;&lt;b&gt;gdd1.gradido.com: &lt;/b&gt;Gradido Main Server&lt;/font&gt;&lt;/span&gt;" style="rounded=1;whiteSpace=wrap;html=1;verticalAlign=top;fillColor=#e1d5e7;strokeColor=#9673a6;align=left;fontSize=12;" vertex="1" parent="1">
                    <mxGeometry x="280" y="730" width="130" height="50" as="geometry"/>
                </mxCell>
                <mxCell id="113" value="&lt;span lang=&quot;EN-US&quot; style=&quot;font-family: &amp;#34;liberation serif&amp;#34; , serif&quot;&gt;&lt;font style=&quot;font-size: 12px&quot;&gt;login via password or ssh-key&lt;/font&gt;&lt;/span&gt;" style="rounded=1;whiteSpace=wrap;html=1;verticalAlign=top;align=left;fontSize=12;fillColor=#f5f5f5;strokeColor=#666666;fontColor=#333333;" vertex="1" parent="1">
                    <mxGeometry x="460" y="739" width="110" height="40" as="geometry"/>
                </mxCell>
                <mxCell id="114" value="&lt;span lang=&quot;EN-US&quot; style=&quot;font-family: &amp;#34;liberation serif&amp;#34; , serif&quot;&gt;&lt;font style=&quot;font-size: 12px&quot;&gt;non standard ssh-port&lt;/font&gt;&lt;/span&gt;" style="rounded=1;whiteSpace=wrap;html=1;verticalAlign=top;align=left;fontSize=12;fillColor=#f5f5f5;strokeColor=#666666;fontColor=#333333;" vertex="1" parent="1">
                    <mxGeometry x="580" y="739" width="110" height="40" as="geometry"/>
                </mxCell>
                <mxCell id="162" style="edgeStyle=orthogonalEdgeStyle;rounded=0;orthogonalLoop=1;jettySize=auto;html=1;" edge="1" parent="1" source="118" target="131">
                    <mxGeometry relative="1" as="geometry"/>
                </mxCell>
                <mxCell id="118" value="&lt;span lang=&quot;EN-US&quot; style=&quot;font-family: &amp;#34;liberation serif&amp;#34; , serif&quot;&gt;&lt;b&gt;&lt;span style=&quot;font-size: 12pt&quot;&gt;Provider?:&amp;nbsp;&lt;/span&gt;&lt;span lang=&quot;EN-US&quot; style=&quot;font-size: 12.0pt ; font-family: &amp;#34;liberation serif&amp;#34; , serif&quot;&gt;VPS Linux: Main Production AppServer&lt;/span&gt;&lt;/b&gt;&lt;b style=&quot;font-size: 12pt&quot;&gt;&lt;br&gt;&lt;/b&gt;&lt;/span&gt;" style="rounded=1;whiteSpace=wrap;html=1;verticalAlign=top;fillColor=#f5f5f5;strokeColor=#666666;gradientColor=#b3b3b3;" vertex="1" parent="1">
                    <mxGeometry x="790" y="464" width="470" height="346" as="geometry"/>
                </mxCell>
                <mxCell id="119" value="&lt;ul style=&quot;font-family: &amp;#34;liberation serif&amp;#34; , serif&quot;&gt;&lt;li&gt;&lt;span lang=&quot;EN-US&quot;&gt;&lt;b&gt;CPU:&lt;/b&gt;&amp;nbsp;1x&lt;/span&gt;&amp;nbsp;vCore (2,4 GHz)&lt;/li&gt;&lt;li&gt;&lt;span lang=&quot;EN-US&quot;&gt;&lt;b&gt;Arbeitsspeicher&lt;/b&gt;: 1&lt;/span&gt;&amp;nbsp;GB / kein Swap&lt;/li&gt;&lt;li&gt;&lt;span lang=&quot;EN-US&quot;&gt;&lt;b&gt;Persistenz:&lt;/b&gt;&amp;nbsp;?&lt;/span&gt;&lt;/li&gt;&lt;li&gt;&lt;b&gt;OS:&lt;/b&gt; Ubuntu 18.04.1 LTS&lt;/li&gt;&lt;li&gt;&lt;span lang=&quot;EN-US&quot; style=&quot;font-family: &amp;#34;liberation serif&amp;#34; , serif&quot;&gt;&lt;font style=&quot;font-size: 12px&quot;&gt;&lt;b&gt;IP/Port:&lt;/b&gt;&amp;nbsp;&lt;/font&gt;&lt;/span&gt;212.83.56.124: 17611&lt;br&gt;&lt;/li&gt;&lt;/ul&gt;" style="rounded=0;whiteSpace=wrap;html=1;verticalAlign=middle;labelPosition=center;verticalLabelPosition=middle;align=left;spacing=0;spacingTop=0;" vertex="1" parent="1">
                    <mxGeometry x="855" y="495" width="365" height="109" as="geometry"/>
                </mxCell>
                <mxCell id="120" value="&lt;span lang=&quot;EN-US&quot; style=&quot;font-size: 12px ; font-family: &amp;#34;liberation serif&amp;#34; , serif&quot;&gt;nginx 1.14.0 (Ubuntu)&lt;br style=&quot;font-size: 12px&quot;&gt;Port: 80 + 443&lt;/span&gt;" style="rounded=1;whiteSpace=wrap;html=1;verticalAlign=top;gradientColor=#97d077;fillColor=#d5e8d4;strokeColor=#82b366;align=left;fontSize=12;" vertex="1" parent="1">
                    <mxGeometry x="810" y="615" width="120" height="40" as="geometry"/>
                </mxCell>
                <mxCell id="121" value="&lt;span lang=&quot;EN-US&quot; style=&quot;font-size: 12px ; font-family: &amp;#34;liberation serif&amp;#34; , serif&quot;&gt;php-fpm7.2&lt;/span&gt;" style="rounded=1;whiteSpace=wrap;html=1;verticalAlign=top;gradientColor=#97d077;fillColor=#d5e8d4;strokeColor=#82b366;align=left;fontSize=12;" vertex="1" parent="1">
                    <mxGeometry x="937" y="615" width="63" height="29" as="geometry"/>
                </mxCell>
                <mxCell id="122" value="&lt;span lang=&quot;EN-US&quot; style=&quot;font-size: 12px ; font-family: &amp;#34;liberation serif&amp;#34; , serif&quot;&gt;ufw 0.35&lt;/span&gt;" style="rounded=1;whiteSpace=wrap;html=1;verticalAlign=top;gradientColor=#97d077;fillColor=#d5e8d4;strokeColor=#82b366;align=left;fontSize=12;" vertex="1" parent="1">
                    <mxGeometry x="1006" y="615" width="63" height="30" as="geometry"/>
                </mxCell>
                <mxCell id="124" value="&lt;span lang=&quot;EN-US&quot; style=&quot;font-family: &amp;#34;liberation serif&amp;#34; , serif&quot;&gt;&lt;font style=&quot;font-size: 12px&quot;&gt;node v12.13.1&lt;/font&gt;&lt;/span&gt;" style="rounded=1;whiteSpace=wrap;html=1;verticalAlign=top;gradientColor=#97d077;fillColor=#d5e8d4;strokeColor=#82b366;align=left;fontSize=12;" vertex="1" parent="1">
                    <mxGeometry x="1077" y="615" width="83" height="30" as="geometry"/>
                </mxCell>
                <mxCell id="125" value="&lt;span lang=&quot;EN-US&quot; style=&quot;font-family: &amp;#34;liberation serif&amp;#34; , serif&quot;&gt;&lt;font style=&quot;font-size: 12px&quot;&gt;&lt;b&gt;gdd1.gradido.com: &lt;/b&gt;Gradido Main Server&lt;/font&gt;&lt;/span&gt;" style="rounded=1;whiteSpace=wrap;html=1;verticalAlign=top;fillColor=#e1d5e7;strokeColor=#9673a6;align=left;fontSize=12;" vertex="1" parent="1">
                    <mxGeometry x="810" y="744" width="130" height="50" as="geometry"/>
                </mxCell>
                <mxCell id="126" value="&lt;span lang=&quot;EN-US&quot; style=&quot;font-family: &amp;#34;liberation serif&amp;#34; , serif&quot;&gt;&lt;font style=&quot;font-size: 12px&quot;&gt;login via password or ssh-key&lt;/font&gt;&lt;/span&gt;" style="rounded=1;whiteSpace=wrap;html=1;verticalAlign=top;align=left;fontSize=12;fillColor=#f5f5f5;strokeColor=#666666;fontColor=#333333;" vertex="1" parent="1">
                    <mxGeometry x="990" y="753" width="110" height="40" as="geometry"/>
                </mxCell>
                <mxCell id="127" value="&lt;span lang=&quot;EN-US&quot; style=&quot;font-family: &amp;#34;liberation serif&amp;#34; , serif&quot;&gt;&lt;font style=&quot;font-size: 12px&quot;&gt;non standard ssh-port&lt;/font&gt;&lt;/span&gt;" style="rounded=1;whiteSpace=wrap;html=1;verticalAlign=top;align=left;fontSize=12;fillColor=#f5f5f5;strokeColor=#666666;fontColor=#333333;" vertex="1" parent="1">
                    <mxGeometry x="1110" y="753" width="110" height="40" as="geometry"/>
                </mxCell>
                <mxCell id="131" value="&lt;span lang=&quot;EN-US&quot; style=&quot;font-family: &amp;#34;liberation serif&amp;#34; , serif&quot;&gt;&lt;b&gt;&lt;span style=&quot;font-size: 12pt&quot;&gt;Provider?:&amp;nbsp;&lt;/span&gt;&lt;span lang=&quot;EN-US&quot; style=&quot;font-size: 12.0pt ; font-family: &amp;#34;liberation serif&amp;#34; , serif&quot;&gt;VPS Linux: Main Production Persistenz Server&lt;/span&gt;&lt;/b&gt;&lt;b style=&quot;font-size: 12pt&quot;&gt;&lt;br&gt;&lt;/b&gt;&lt;/span&gt;" style="rounded=1;whiteSpace=wrap;html=1;verticalAlign=top;fillColor=#f5f5f5;strokeColor=#666666;gradientColor=#b3b3b3;" vertex="1" parent="1">
                    <mxGeometry x="525" y="930" width="470" height="310" as="geometry"/>
                </mxCell>
                <mxCell id="132" value="&lt;ul style=&quot;font-family: &amp;#34;liberation serif&amp;#34; , serif&quot;&gt;&lt;li&gt;&lt;span lang=&quot;EN-US&quot;&gt;&lt;b&gt;CPU:&lt;/b&gt;&amp;nbsp;1x&lt;/span&gt;&amp;nbsp;vCore (2,4 GHz)&lt;/li&gt;&lt;li&gt;&lt;span lang=&quot;EN-US&quot;&gt;&lt;b&gt;Arbeitsspeicher&lt;/b&gt;: 1&lt;/span&gt;&amp;nbsp;GB / kein Swap&lt;/li&gt;&lt;li&gt;&lt;span lang=&quot;EN-US&quot;&gt;&lt;b&gt;Persistenz:&lt;/b&gt;&amp;nbsp;?&lt;/span&gt;&lt;/li&gt;&lt;li&gt;&lt;b&gt;OS:&lt;/b&gt; Ubuntu 18.04.1 LTS&lt;/li&gt;&lt;li&gt;&lt;span lang=&quot;EN-US&quot; style=&quot;font-family: &amp;#34;liberation serif&amp;#34; , serif&quot;&gt;&lt;font style=&quot;font-size: 12px&quot;&gt;&lt;b&gt;IP/Port:&lt;/b&gt;&amp;nbsp;&lt;/font&gt;&lt;/span&gt;212.83.56.124: 17611&lt;br&gt;&lt;/li&gt;&lt;/ul&gt;" style="rounded=0;whiteSpace=wrap;html=1;verticalAlign=middle;labelPosition=center;verticalLabelPosition=middle;align=left;spacing=0;spacingTop=0;" vertex="1" parent="1">
                    <mxGeometry x="590" y="961" width="365" height="109" as="geometry"/>
                </mxCell>
                <mxCell id="133" value="&lt;span lang=&quot;EN-US&quot; style=&quot;font-size: 12px ; font-family: &amp;#34;liberation serif&amp;#34; , serif&quot;&gt;nginx 1.14.0 (Ubuntu)&lt;br style=&quot;font-size: 12px&quot;&gt;Port: 80 + 443&lt;/span&gt;" style="rounded=1;whiteSpace=wrap;html=1;verticalAlign=top;gradientColor=#97d077;fillColor=#d5e8d4;strokeColor=#82b366;align=left;fontSize=12;" vertex="1" parent="1">
                    <mxGeometry x="545" y="1081" width="120" height="40" as="geometry"/>
                </mxCell>
                <mxCell id="134" value="&lt;span lang=&quot;EN-US&quot; style=&quot;font-size: 12px ; font-family: &amp;#34;liberation serif&amp;#34; , serif&quot;&gt;php-fpm7.2&lt;/span&gt;" style="rounded=1;whiteSpace=wrap;html=1;verticalAlign=top;gradientColor=#97d077;fillColor=#d5e8d4;strokeColor=#82b366;align=left;fontSize=12;" vertex="1" parent="1">
                    <mxGeometry x="672" y="1081" width="63" height="29" as="geometry"/>
                </mxCell>
                <mxCell id="135" value="&lt;span lang=&quot;EN-US&quot; style=&quot;font-size: 12px ; font-family: &amp;#34;liberation serif&amp;#34; , serif&quot;&gt;ufw 0.35&lt;/span&gt;" style="rounded=1;whiteSpace=wrap;html=1;verticalAlign=top;gradientColor=#97d077;fillColor=#d5e8d4;strokeColor=#82b366;align=left;fontSize=12;" vertex="1" parent="1">
                    <mxGeometry x="741" y="1081" width="63" height="30" as="geometry"/>
                </mxCell>
                <mxCell id="136" value="&lt;span lang=&quot;EN-US&quot; style=&quot;font-family: &amp;#34;liberation serif&amp;#34; , serif&quot;&gt;mariadb&amp;nbsp; Ver 15.1 &lt;br&gt;Distrib 10.1.43-MariaDB, &lt;br&gt;Port: 3306&lt;/span&gt;" style="rounded=1;whiteSpace=wrap;html=1;verticalAlign=top;gradientColor=#97d077;fillColor=#d5e8d4;strokeColor=#82b366;align=left;fontSize=12;" vertex="1" parent="1">
                    <mxGeometry x="545" y="1140" width="130" height="51.25" as="geometry"/>
                </mxCell>
                <mxCell id="137" value="&lt;span lang=&quot;EN-US&quot; style=&quot;font-family: &amp;#34;liberation serif&amp;#34; , serif&quot;&gt;&lt;font style=&quot;font-size: 12px&quot;&gt;node v12.13.1&lt;/font&gt;&lt;/span&gt;" style="rounded=1;whiteSpace=wrap;html=1;verticalAlign=top;gradientColor=#97d077;fillColor=#d5e8d4;strokeColor=#82b366;align=left;fontSize=12;" vertex="1" parent="1">
                    <mxGeometry x="812" y="1081" width="83" height="30" as="geometry"/>
                </mxCell>
                <mxCell id="139" value="&lt;span lang=&quot;EN-US&quot; style=&quot;font-family: &amp;#34;liberation serif&amp;#34; , serif&quot;&gt;&lt;font style=&quot;font-size: 12px&quot;&gt;login via password or ssh-key&lt;/font&gt;&lt;/span&gt;" style="rounded=1;whiteSpace=wrap;html=1;verticalAlign=top;align=left;fontSize=12;fillColor=#f5f5f5;strokeColor=#666666;fontColor=#333333;" vertex="1" parent="1">
                    <mxGeometry x="725" y="1121" width="110" height="40" as="geometry"/>
                </mxCell>
                <mxCell id="140" value="&lt;span lang=&quot;EN-US&quot; style=&quot;font-family: &amp;#34;liberation serif&amp;#34; , serif&quot;&gt;&lt;font style=&quot;font-size: 12px&quot;&gt;non standard ssh-port&lt;/font&gt;&lt;/span&gt;" style="rounded=1;whiteSpace=wrap;html=1;verticalAlign=top;align=left;fontSize=12;fillColor=#f5f5f5;strokeColor=#666666;fontColor=#333333;" vertex="1" parent="1">
                    <mxGeometry x="845" y="1121" width="110" height="40" as="geometry"/>
                </mxCell>
                <mxCell id="141" value="&lt;span style=&quot;font-family: &amp;#34;liberation serif&amp;#34; , serif&quot;&gt;&lt;font style=&quot;font-size: 12px&quot;&gt;db backups&amp;nbsp;gelegentlich manuell, &lt;br&gt;download in verschlÃ¼sseltes TrueCrypt Volume auf&amp;nbsp;Arbeits-Laptop&lt;/font&gt;&lt;/span&gt;" style="rounded=1;whiteSpace=wrap;html=1;verticalAlign=top;align=left;fontSize=12;fillColor=#f5f5f5;strokeColor=#666666;fontColor=#333333;" vertex="1" parent="1">
                    <mxGeometry x="725" y="1171" width="230" height="51" as="geometry"/>
                </mxCell>
                <mxCell id="158" style="edgeStyle=orthogonalEdgeStyle;rounded=0;orthogonalLoop=1;jettySize=auto;html=1;" edge="1" parent="1" source="144" target="105">
                    <mxGeometry relative="1" as="geometry"/>
                </mxCell>
                <mxCell id="160" style="edgeStyle=orthogonalEdgeStyle;rounded=0;orthogonalLoop=1;jettySize=auto;html=1;entryX=0.5;entryY=0;entryDx=0;entryDy=0;" edge="1" parent="1" source="144" target="118">
                    <mxGeometry relative="1" as="geometry"/>
                </mxCell>
                <mxCell id="144" value="&lt;span lang=&quot;EN-US&quot; style=&quot;font-family: &amp;#34;liberation serif&amp;#34; , serif&quot;&gt;&lt;b&gt;&lt;span style=&quot;font-size: 12pt&quot;&gt;Provider?:&amp;nbsp;&lt;/span&gt;&lt;span lang=&quot;EN-US&quot; style=&quot;font-size: 12.0pt ; font-family: &amp;#34;liberation serif&amp;#34; , serif&quot;&gt;VPS Linux: Main Production LoadBalancer&lt;/span&gt;&lt;/b&gt;&lt;b style=&quot;font-size: 12pt&quot;&gt;&lt;br&gt;&lt;/b&gt;&lt;/span&gt;" style="rounded=1;whiteSpace=wrap;html=1;verticalAlign=top;fillColor=#f5f5f5;strokeColor=#666666;gradientColor=#b3b3b3;" vertex="1" parent="1">
                    <mxGeometry x="525" y="90" width="470" height="270" as="geometry"/>
                </mxCell>
                <mxCell id="145" value="&lt;ul style=&quot;font-family: &amp;#34;liberation serif&amp;#34; , serif&quot;&gt;&lt;li&gt;&lt;span lang=&quot;EN-US&quot;&gt;&lt;b&gt;CPU:&lt;/b&gt;&amp;nbsp;1x&lt;/span&gt;&amp;nbsp;vCore (2,4 GHz)&lt;/li&gt;&lt;li&gt;&lt;span lang=&quot;EN-US&quot;&gt;&lt;b&gt;Arbeitsspeicher&lt;/b&gt;: 1&lt;/span&gt;&amp;nbsp;GB / kein Swap&lt;/li&gt;&lt;li&gt;&lt;span lang=&quot;EN-US&quot;&gt;&lt;b&gt;Persistenz:&lt;/b&gt;&amp;nbsp;?&lt;/span&gt;&lt;/li&gt;&lt;li&gt;&lt;b&gt;OS:&lt;/b&gt; Ubuntu 18.04.1 LTS&lt;/li&gt;&lt;li&gt;&lt;span lang=&quot;EN-US&quot; style=&quot;font-family: &amp;#34;liberation serif&amp;#34; , serif&quot;&gt;&lt;font style=&quot;font-size: 12px&quot;&gt;&lt;b&gt;IP/Port:&lt;/b&gt;&amp;nbsp;&lt;/font&gt;&lt;/span&gt;212.83.56.124: 17611&lt;br&gt;&lt;/li&gt;&lt;/ul&gt;" style="rounded=0;whiteSpace=wrap;html=1;verticalAlign=middle;labelPosition=center;verticalLabelPosition=middle;align=left;spacing=0;spacingTop=0;" vertex="1" parent="1">
                    <mxGeometry x="590" y="121" width="365" height="109" as="geometry"/>
                </mxCell>
                <mxCell id="146" value="&lt;span lang=&quot;EN-US&quot; style=&quot;font-size: 12px ; font-family: &amp;#34;liberation serif&amp;#34; , serif&quot;&gt;nginx 1.14.0 (Ubuntu)&lt;br style=&quot;font-size: 12px&quot;&gt;Port: 80 + 443&lt;/span&gt;" style="rounded=1;whiteSpace=wrap;html=1;verticalAlign=top;gradientColor=#97d077;fillColor=#d5e8d4;strokeColor=#82b366;align=left;fontSize=12;" vertex="1" parent="1">
                    <mxGeometry x="545" y="241" width="120" height="40" as="geometry"/>
                </mxCell>
                <mxCell id="147" value="&lt;span lang=&quot;EN-US&quot; style=&quot;font-size: 12px ; font-family: &amp;#34;liberation serif&amp;#34; , serif&quot;&gt;php-fpm7.2&lt;/span&gt;" style="rounded=1;whiteSpace=wrap;html=1;verticalAlign=top;gradientColor=#97d077;fillColor=#d5e8d4;strokeColor=#82b366;align=left;fontSize=12;" vertex="1" parent="1">
                    <mxGeometry x="672" y="241" width="63" height="29" as="geometry"/>
                </mxCell>
                <mxCell id="148" value="&lt;span lang=&quot;EN-US&quot; style=&quot;font-size: 12px ; font-family: &amp;#34;liberation serif&amp;#34; , serif&quot;&gt;ufw 0.35&lt;/span&gt;" style="rounded=1;whiteSpace=wrap;html=1;verticalAlign=top;gradientColor=#97d077;fillColor=#d5e8d4;strokeColor=#82b366;align=left;fontSize=12;" vertex="1" parent="1">
                    <mxGeometry x="741" y="241" width="63" height="30" as="geometry"/>
                </mxCell>
                <mxCell id="150" value="&lt;span lang=&quot;EN-US&quot; style=&quot;font-family: &amp;#34;liberation serif&amp;#34; , serif&quot;&gt;&lt;font style=&quot;font-size: 12px&quot;&gt;node v12.13.1&lt;/font&gt;&lt;/span&gt;" style="rounded=1;whiteSpace=wrap;html=1;verticalAlign=top;gradientColor=#97d077;fillColor=#d5e8d4;strokeColor=#82b366;align=left;fontSize=12;" vertex="1" parent="1">
                    <mxGeometry x="812" y="241" width="83" height="30" as="geometry"/>
                </mxCell>
                <mxCell id="151" value="&lt;span lang=&quot;EN-US&quot; style=&quot;font-family: &amp;#34;liberation serif&amp;#34; , serif&quot;&gt;&lt;font style=&quot;font-size: 12px&quot;&gt;&lt;b&gt;gdd1.gradido.com:&lt;br&gt;&lt;/b&gt;&lt;span&gt;- Authentication&amp;nbsp;&lt;br&gt;&lt;/span&gt;&lt;span&gt;- Balancing&lt;/span&gt;&lt;span&gt;&lt;br&gt;&lt;/span&gt;&lt;/font&gt;&lt;/span&gt;" style="rounded=1;whiteSpace=wrap;html=1;verticalAlign=top;fillColor=#e1d5e7;strokeColor=#9673a6;align=left;fontSize=12;" vertex="1" parent="1">
                    <mxGeometry x="545" y="290" width="122.5" height="60" as="geometry"/>
                </mxCell>
                <mxCell id="152" value="&lt;span lang=&quot;EN-US&quot; style=&quot;font-family: &amp;#34;liberation serif&amp;#34; , serif&quot;&gt;&lt;font style=&quot;font-size: 12px&quot;&gt;login via password or ssh-key&lt;/font&gt;&lt;/span&gt;" style="rounded=1;whiteSpace=wrap;html=1;verticalAlign=top;align=left;fontSize=12;fillColor=#f5f5f5;strokeColor=#666666;fontColor=#333333;" vertex="1" parent="1">
                    <mxGeometry x="762.5" y="290" width="110" height="40" as="geometry"/>
                </mxCell>
                <mxCell id="153" value="&lt;span lang=&quot;EN-US&quot; style=&quot;font-family: &amp;#34;liberation serif&amp;#34; , serif&quot;&gt;&lt;font style=&quot;font-size: 12px&quot;&gt;non standard ssh-port&lt;/font&gt;&lt;/span&gt;" style="rounded=1;whiteSpace=wrap;html=1;verticalAlign=top;align=left;fontSize=12;fillColor=#f5f5f5;strokeColor=#666666;fontColor=#333333;" vertex="1" parent="1">
                    <mxGeometry x="882.5" y="290" width="110" height="40" as="geometry"/>
                </mxCell>
                <mxCell id="163" value="&lt;span lang=&quot;EN-US&quot; style=&quot;font-family: &amp;#34;liberation serif&amp;#34; , serif&quot;&gt;&lt;font style=&quot;font-size: 12px&quot;&gt;Gradido Backend &lt;br&gt;Manage Node&lt;br&gt;Port:&amp;nbsp;&lt;/font&gt;&lt;/span&gt;" style="rounded=1;whiteSpace=wrap;html=1;verticalAlign=top;gradientColor=#97d077;fillColor=#d5e8d4;strokeColor=#82b366;align=left;fontSize=12;" vertex="1" parent="1">
                    <mxGeometry x="360" y="670" width="100" height="51.25" as="geometry"/>
                </mxCell>
                <mxCell id="166" value="" style="group" vertex="1" connectable="0" parent="1">
                    <mxGeometry x="468.5" y="650" width="120" height="71.25" as="geometry"/>
                </mxCell>
                <mxCell id="116" value="&lt;span lang=&quot;EN-US&quot; style=&quot;font-family: &amp;#34;liberation serif&amp;#34; , serif&quot;&gt;&lt;font style=&quot;font-size: 12px&quot;&gt;Gradido Backend &lt;br&gt;Worker Node&lt;br&gt;Port:&amp;nbsp;&lt;/font&gt;&lt;/span&gt;" style="rounded=1;whiteSpace=wrap;html=1;verticalAlign=top;gradientColor=#97d077;fillColor=#d5e8d4;strokeColor=#82b366;align=left;fontSize=12;" vertex="1" parent="166">
                    <mxGeometry width="100" height="51.25" as="geometry"/>
                </mxCell>
                <mxCell id="164" value="&lt;span lang=&quot;EN-US&quot; style=&quot;font-family: &amp;#34;liberation serif&amp;#34; , serif&quot;&gt;&lt;font style=&quot;font-size: 12px&quot;&gt;Gradido Backend &lt;br&gt;Worker Node&lt;br&gt;Port:&amp;nbsp;&lt;/font&gt;&lt;/span&gt;" style="rounded=1;whiteSpace=wrap;html=1;verticalAlign=top;gradientColor=#97d077;fillColor=#d5e8d4;strokeColor=#82b366;align=left;fontSize=12;" vertex="1" parent="166">
                    <mxGeometry x="10" y="10" width="100" height="51.25" as="geometry"/>
                </mxCell>
                <mxCell id="165" value="&lt;span lang=&quot;EN-US&quot; style=&quot;font-family: &amp;#34;liberation serif&amp;#34; , serif&quot;&gt;&lt;font style=&quot;font-size: 12px&quot;&gt;Gradido Backend &lt;br&gt;Worker Node&lt;br&gt;Port:&amp;nbsp;&lt;/font&gt;&lt;/span&gt;" style="rounded=1;whiteSpace=wrap;html=1;verticalAlign=top;gradientColor=#97d077;fillColor=#d5e8d4;strokeColor=#82b366;align=left;fontSize=12;" vertex="1" parent="166">
                    <mxGeometry x="20" y="20" width="100" height="51.25" as="geometry"/>
                </mxCell>
                <mxCell id="167" value="" style="group" vertex="1" connectable="0" parent="1">
                    <mxGeometry x="990" y="660" width="120" height="71.25" as="geometry"/>
                </mxCell>
                <mxCell id="168" value="&lt;span lang=&quot;EN-US&quot; style=&quot;font-family: &amp;#34;liberation serif&amp;#34; , serif&quot;&gt;&lt;font style=&quot;font-size: 12px&quot;&gt;Gradido Backend &lt;br&gt;Worker Node&lt;br&gt;Port:&amp;nbsp;&lt;/font&gt;&lt;/span&gt;" style="rounded=1;whiteSpace=wrap;html=1;verticalAlign=top;gradientColor=#97d077;fillColor=#d5e8d4;strokeColor=#82b366;align=left;fontSize=12;" vertex="1" parent="167">
                    <mxGeometry width="100" height="51.25" as="geometry"/>
                </mxCell>
                <mxCell id="169" value="&lt;span lang=&quot;EN-US&quot; style=&quot;font-family: &amp;#34;liberation serif&amp;#34; , serif&quot;&gt;&lt;font style=&quot;font-size: 12px&quot;&gt;Gradido Backend &lt;br&gt;Worker Node&lt;br&gt;Port:&amp;nbsp;&lt;/font&gt;&lt;/span&gt;" style="rounded=1;whiteSpace=wrap;html=1;verticalAlign=top;gradientColor=#97d077;fillColor=#d5e8d4;strokeColor=#82b366;align=left;fontSize=12;" vertex="1" parent="167">
                    <mxGeometry x="10" y="10" width="100" height="51.25" as="geometry"/>
                </mxCell>
                <mxCell id="170" value="&lt;span lang=&quot;EN-US&quot; style=&quot;font-family: &amp;#34;liberation serif&amp;#34; , serif&quot;&gt;&lt;font style=&quot;font-size: 12px&quot;&gt;Gradido Backend &lt;br&gt;Worker Node&lt;br&gt;Port:&amp;nbsp;&lt;/font&gt;&lt;/span&gt;" style="rounded=1;whiteSpace=wrap;html=1;verticalAlign=top;gradientColor=#97d077;fillColor=#d5e8d4;strokeColor=#82b366;align=left;fontSize=12;" vertex="1" parent="167">
                    <mxGeometry x="20" y="20" width="100" height="51.25" as="geometry"/>
                </mxCell>
                <mxCell id="171" value="" style="endArrow=none;dashed=1;html=1;dashPattern=1 3;strokeWidth=2;exitX=0;exitY=0.333;exitDx=0;exitDy=0;exitPerimeter=0;" edge="1" parent="1" source="101">
                    <mxGeometry width="50" height="50" relative="1" as="geometry">
                        <mxPoint x="620" y="700" as="sourcePoint"/>
                        <mxPoint x="1440" y="880" as="targetPoint"/>
                        <Array as="points"/>
                    </mxGeometry>
                </mxCell>
                <mxCell id="172" value="" style="endArrow=none;dashed=1;html=1;dashPattern=1 3;strokeWidth=2;exitX=-0.001;exitY=0.143;exitDx=0;exitDy=0;exitPerimeter=0;" edge="1" parent="1" source="101">
                    <mxGeometry width="50" height="50" relative="1" as="geometry">
                        <mxPoint x="620" y="700" as="sourcePoint"/>
                        <mxPoint x="1440" y="400" as="targetPoint"/>
                    </mxGeometry>
                </mxCell>
                <mxCell id="219" style="edgeStyle=orthogonalEdgeStyle;rounded=0;orthogonalLoop=1;jettySize=auto;html=1;entryX=0.5;entryY=0;entryDx=0;entryDy=0;" edge="1" parent="1" source="173" target="208">
                    <mxGeometry relative="1" as="geometry"/>
                </mxCell>
                <mxCell id="173" value="&lt;span lang=&quot;EN-US&quot; style=&quot;font-family: &amp;#34;liberation serif&amp;#34; , serif&quot;&gt;&lt;b style=&quot;font-size: 12pt&quot;&gt;STRATO:&amp;nbsp;&lt;/b&gt;&lt;span lang=&quot;EN-US&quot; style=&quot;font-size: 12.0pt ; font-family: &amp;#34;liberation serif&amp;#34; , serif&quot;&gt;&lt;b&gt;Root Server Linux C4-47: Staging&lt;/b&gt;&lt;/span&gt;&lt;b style=&quot;font-size: 12pt&quot;&gt;&lt;br&gt;&lt;/b&gt;&lt;/span&gt;" style="rounded=1;whiteSpace=wrap;html=1;verticalAlign=top;fillColor=#f5f5f5;strokeColor=#666666;gradientColor=#b3b3b3;" vertex="1" parent="1">
                    <mxGeometry x="2270" y="436.5" width="470" height="401" as="geometry"/>
                </mxCell>
                <mxCell id="174" value="&lt;ul style=&quot;font-family: &amp;#34;liberation serif&amp;#34; , serif&quot;&gt;&lt;li&gt;&lt;span lang=&quot;EN-US&quot;&gt;&lt;b&gt;CPU:&lt;/b&gt;&amp;nbsp;&lt;/span&gt;AMD Opteronâ„¢ 1385 (4 x 2,7 GHz)&lt;/li&gt;&lt;li&gt;&lt;span lang=&quot;EN-US&quot;&gt;&lt;b&gt;Arbeitsspeicher&lt;/b&gt;:&amp;nbsp;&lt;/span&gt;4 GB DDR 2 / 8 GB Swap&lt;/li&gt;&lt;li&gt;&lt;span lang=&quot;EN-US&quot;&gt;&lt;b&gt;Persistenz:&lt;/b&gt;&amp;nbsp;&lt;/span&gt;2 x 500 GB HDD (Raid 1)&lt;/li&gt;&lt;li&gt;&lt;b&gt;OS:&lt;/b&gt; Ubuntu 20.04 LTS 64bit&lt;/li&gt;&lt;li&gt;&lt;span lang=&quot;EN-US&quot; style=&quot;font-family: &amp;#34;liberation serif&amp;#34; , serif&quot;&gt;&lt;font style=&quot;font-size: 12px&quot;&gt;&lt;b&gt;IP/Port:&lt;/b&gt; 85.214.157.229:1618&lt;/font&gt;&lt;/span&gt;&lt;br&gt;&lt;/li&gt;&lt;/ul&gt;" style="rounded=0;whiteSpace=wrap;html=1;verticalAlign=middle;labelPosition=center;verticalLabelPosition=middle;align=left;spacing=0;spacingTop=0;" vertex="1" parent="1">
                    <mxGeometry x="2335" y="467.5" width="365" height="109" as="geometry"/>
                </mxCell>
                <mxCell id="175" value="&lt;span lang=&quot;EN-US&quot; style=&quot;font-size: 12px; font-family: &amp;quot;liberation serif&amp;quot;, serif;&quot;&gt;nginx 1.18.0 (Ubuntu)&lt;br style=&quot;font-size: 12px;&quot;&gt;Port: 80 + 443&lt;/span&gt;" style="rounded=1;whiteSpace=wrap;html=1;verticalAlign=top;gradientColor=#97d077;fillColor=#d5e8d4;strokeColor=#82b366;align=left;fontSize=12;" vertex="1" parent="1">
                    <mxGeometry x="2290" y="587.5" width="120" height="40" as="geometry"/>
                </mxCell>
                <mxCell id="176" value="&lt;span lang=&quot;EN-US&quot; style=&quot;font-size: 12px; font-family: &amp;quot;liberation serif&amp;quot;, serif;&quot;&gt;php-fpm7.4&lt;/span&gt;" style="rounded=1;whiteSpace=wrap;html=1;verticalAlign=top;gradientColor=#97d077;fillColor=#d5e8d4;strokeColor=#82b366;align=left;fontSize=12;" vertex="1" parent="1">
                    <mxGeometry x="2417" y="587.5" width="63" height="29" as="geometry"/>
                </mxCell>
                <mxCell id="177" value="&lt;span lang=&quot;EN-US&quot; style=&quot;font-size: 12px; font-family: &amp;quot;liberation serif&amp;quot;, serif;&quot;&gt;mariadb&amp;nbsp; Ver 15.1 &lt;br style=&quot;font-size: 12px;&quot;&gt;Distrib 10.3.31-MariaDB&lt;br style=&quot;font-size: 12px;&quot;&gt;Port: 3306&lt;/span&gt;" style="rounded=1;whiteSpace=wrap;html=1;verticalAlign=top;gradientColor=#97d077;fillColor=#d5e8d4;strokeColor=#82b366;align=left;fontSize=12;" vertex="1" parent="1">
                    <mxGeometry x="2510" y="636.25" width="130" height="50" as="geometry"/>
                </mxCell>
                <mxCell id="178" value="&lt;span lang=&quot;EN-US&quot; style=&quot;font-size: 12px; font-family: &amp;quot;liberation serif&amp;quot;, serif;&quot;&gt;ufw 0.36&lt;/span&gt;" style="rounded=1;whiteSpace=wrap;html=1;verticalAlign=top;gradientColor=#97d077;fillColor=#d5e8d4;strokeColor=#82b366;align=left;fontSize=12;" vertex="1" parent="1">
                    <mxGeometry x="2486" y="587.5" width="63" height="30" as="geometry"/>
                </mxCell>
                <mxCell id="179" value="&lt;span lang=&quot;EN-US&quot; style=&quot;font-size: 12px; font-family: &amp;quot;liberation serif&amp;quot;, serif;&quot;&gt;node v12.19.0&lt;/span&gt;" style="rounded=1;whiteSpace=wrap;html=1;verticalAlign=top;gradientColor=#97d077;fillColor=#d5e8d4;strokeColor=#82b366;align=left;fontSize=12;" vertex="1" parent="1">
                    <mxGeometry x="2560" y="587.5" width="80" height="30" as="geometry"/>
                </mxCell>
                <mxCell id="180" value="&lt;span lang=&quot;EN-US&quot; style=&quot;font-size: 12px; font-family: &amp;quot;liberation serif&amp;quot;, serif;&quot;&gt;Gradido Backend &lt;br style=&quot;font-size: 12px;&quot;&gt;Port: 4000&lt;/span&gt;" style="rounded=1;whiteSpace=wrap;html=1;verticalAlign=top;gradientColor=#97d077;fillColor=#d5e8d4;strokeColor=#82b366;align=left;fontSize=12;" vertex="1" parent="1">
                    <mxGeometry x="2290" y="636.25" width="90" height="51.25" as="geometry"/>
                </mxCell>
                <mxCell id="181" value="&lt;span lang=&quot;EN-US&quot; style=&quot;font-size: 12px; font-family: &amp;quot;liberation serif&amp;quot;, serif;&quot;&gt;Gradido Login Server &lt;br style=&quot;font-size: 12px;&quot;&gt;HTTP Port: 1200&lt;br style=&quot;font-size: 12px;&quot;&gt;JSON: 1201&lt;/span&gt;" style="rounded=1;whiteSpace=wrap;html=1;verticalAlign=top;gradientColor=#97d077;fillColor=#d5e8d4;strokeColor=#82b366;align=left;fontSize=12;" vertex="1" parent="1">
                    <mxGeometry x="2387" y="636.25" width="110" height="51" as="geometry"/>
                </mxCell>
                <mxCell id="182" value="&lt;span lang=&quot;EN-US&quot; style=&quot;font-size: 12px ; font-family: &amp;#34;liberation serif&amp;#34; , serif&quot;&gt;&lt;b&gt;gdt.gradido.net:&lt;/b&gt; GDT-Server for testing&lt;/span&gt;" style="rounded=1;whiteSpace=wrap;html=1;verticalAlign=top;fillColor=#e1d5e7;strokeColor=#9673a6;align=left;fontSize=12;" vertex="1" parent="1">
                    <mxGeometry x="2290" y="697.5" width="120" height="40" as="geometry"/>
                </mxCell>
                <mxCell id="183" value="&lt;span lang=&quot;EN-US&quot; style=&quot;font-family: &amp;#34;liberation serif&amp;#34; , serif&quot;&gt;&lt;font style=&quot;font-size: 12px&quot;&gt;&lt;b&gt;stage1.gradido.net:&lt;/b&gt; Auto-Deployed Gradido Setup on master branch&lt;/font&gt;&lt;/span&gt;" style="rounded=1;whiteSpace=wrap;html=1;verticalAlign=top;fillColor=#e1d5e7;strokeColor=#9673a6;align=left;fontSize=12;" vertex="1" parent="1">
                    <mxGeometry x="2290" y="747.5" width="120" height="70" as="geometry"/>
                </mxCell>
                <mxCell id="184" value="&lt;span lang=&quot;EN-US&quot; style=&quot;font-family: &amp;#34;liberation serif&amp;#34; , serif&quot;&gt;&lt;font style=&quot;font-size: 12px&quot;&gt;&lt;b&gt;stagelive.gradido.net:&lt;/b&gt; Test with Live Data (dbs deleted&lt;/font&gt;&lt;/span&gt;" style="rounded=1;whiteSpace=wrap;html=1;verticalAlign=top;fillColor=#e1d5e7;strokeColor=#9673a6;align=left;fontSize=12;" vertex="1" parent="1">
                    <mxGeometry x="2420" y="747.5" width="110" height="70" as="geometry"/>
                </mxCell>
                <mxCell id="185" value="&lt;span lang=&quot;EN-US&quot; style=&quot;font-family: &amp;#34;liberation serif&amp;#34; , serif&quot;&gt;&lt;font style=&quot;font-size: 12px&quot;&gt;&lt;b&gt;staging.gradido.net:&lt;/b&gt;&lt;/font&gt;&lt;/span&gt;" style="rounded=1;whiteSpace=wrap;html=1;verticalAlign=top;fillColor=#e1d5e7;strokeColor=#9673a6;align=left;fontSize=12;" vertex="1" parent="1">
                    <mxGeometry x="2420" y="697.5" width="110" height="40" as="geometry"/>
                </mxCell>
                <mxCell id="186" value="&lt;span lang=&quot;EN-US&quot; style=&quot;font-family: &amp;#34;liberation serif&amp;#34; , serif&quot;&gt;&lt;font style=&quot;font-size: 12px&quot;&gt;Login via ssh key or password&lt;/font&gt;&lt;/span&gt;" style="rounded=1;whiteSpace=wrap;html=1;verticalAlign=top;fillColor=#f5f5f5;strokeColor=#666666;align=left;fontSize=12;fontColor=#333333;" vertex="1" parent="1">
                    <mxGeometry x="2590" y="727.5" width="110" height="40" as="geometry"/>
                </mxCell>
                <mxCell id="187" value="&lt;span lang=&quot;EN-US&quot; style=&quot;font-family: &amp;#34;liberation serif&amp;#34; , serif&quot;&gt;&lt;font style=&quot;font-size: 12px&quot;&gt;non standard ssh-port&lt;/font&gt;&lt;/span&gt;" style="rounded=1;whiteSpace=wrap;html=1;verticalAlign=top;fillColor=#f5f5f5;strokeColor=#666666;align=left;fontSize=12;fontColor=#333333;" vertex="1" parent="1">
                    <mxGeometry x="2590" y="777.5" width="110" height="40" as="geometry"/>
                </mxCell>
                <mxCell id="206" style="edgeStyle=orthogonalEdgeStyle;rounded=0;orthogonalLoop=1;jettySize=auto;html=1;entryX=0.5;entryY=0;entryDx=0;entryDy=0;" edge="1" parent="1" source="197" target="6">
                    <mxGeometry relative="1" as="geometry"/>
                </mxCell>
                <mxCell id="207" style="edgeStyle=orthogonalEdgeStyle;rounded=0;orthogonalLoop=1;jettySize=auto;html=1;entryX=0.5;entryY=0;entryDx=0;entryDy=0;" edge="1" parent="1" source="197" target="173">
                    <mxGeometry relative="1" as="geometry"/>
                </mxCell>
                <mxCell id="197" value="&lt;span lang=&quot;EN-US&quot; style=&quot;font-family: &amp;#34;liberation serif&amp;#34; , serif&quot;&gt;&lt;b&gt;&lt;span style=&quot;font-size: 12pt&quot;&gt;Provider?:&amp;nbsp;&lt;/span&gt;&lt;span lang=&quot;EN-US&quot; style=&quot;font-size: 12.0pt ; font-family: &amp;#34;liberation serif&amp;#34; , serif&quot;&gt;VPS Linux: Main Production LoadBalancer&lt;/span&gt;&lt;/b&gt;&lt;b style=&quot;font-size: 12pt&quot;&gt;&lt;br&gt;&lt;/b&gt;&lt;/span&gt;" style="rounded=1;whiteSpace=wrap;html=1;verticalAlign=top;fillColor=#f5f5f5;strokeColor=#666666;gradientColor=#b3b3b3;" vertex="1" parent="1">
                    <mxGeometry x="1965" y="90" width="470" height="270" as="geometry"/>
                </mxCell>
                <mxCell id="198" value="&lt;ul style=&quot;font-family: &amp;#34;liberation serif&amp;#34; , serif&quot;&gt;&lt;li&gt;&lt;span lang=&quot;EN-US&quot;&gt;&lt;b&gt;CPU:&lt;/b&gt;&amp;nbsp;1x&lt;/span&gt;&amp;nbsp;vCore (2,4 GHz)&lt;/li&gt;&lt;li&gt;&lt;span lang=&quot;EN-US&quot;&gt;&lt;b&gt;Arbeitsspeicher&lt;/b&gt;: 1&lt;/span&gt;&amp;nbsp;GB / kein Swap&lt;/li&gt;&lt;li&gt;&lt;span lang=&quot;EN-US&quot;&gt;&lt;b&gt;Persistenz:&lt;/b&gt;&amp;nbsp;?&lt;/span&gt;&lt;/li&gt;&lt;li&gt;&lt;b&gt;OS:&lt;/b&gt; Ubuntu 18.04.1 LTS&lt;/li&gt;&lt;li&gt;&lt;span lang=&quot;EN-US&quot; style=&quot;font-family: &amp;#34;liberation serif&amp;#34; , serif&quot;&gt;&lt;font style=&quot;font-size: 12px&quot;&gt;&lt;b&gt;IP/Port:&lt;/b&gt;&amp;nbsp;&lt;/font&gt;&lt;/span&gt;212.83.56.124: 17611&lt;br&gt;&lt;/li&gt;&lt;/ul&gt;" style="rounded=0;whiteSpace=wrap;html=1;verticalAlign=middle;labelPosition=center;verticalLabelPosition=middle;align=left;spacing=0;spacingTop=0;" vertex="1" parent="1">
                    <mxGeometry x="2030" y="121" width="365" height="109" as="geometry"/>
                </mxCell>
                <mxCell id="199" value="&lt;span lang=&quot;EN-US&quot; style=&quot;font-size: 12px ; font-family: &amp;#34;liberation serif&amp;#34; , serif&quot;&gt;nginx 1.14.0 (Ubuntu)&lt;br style=&quot;font-size: 12px&quot;&gt;Port: 80 + 443&lt;/span&gt;" style="rounded=1;whiteSpace=wrap;html=1;verticalAlign=top;gradientColor=#97d077;fillColor=#d5e8d4;strokeColor=#82b366;align=left;fontSize=12;" vertex="1" parent="1">
                    <mxGeometry x="1985" y="241" width="120" height="40" as="geometry"/>
                </mxCell>
                <mxCell id="200" value="&lt;span lang=&quot;EN-US&quot; style=&quot;font-size: 12px ; font-family: &amp;#34;liberation serif&amp;#34; , serif&quot;&gt;php-fpm7.2&lt;/span&gt;" style="rounded=1;whiteSpace=wrap;html=1;verticalAlign=top;gradientColor=#97d077;fillColor=#d5e8d4;strokeColor=#82b366;align=left;fontSize=12;" vertex="1" parent="1">
                    <mxGeometry x="2112" y="241" width="63" height="29" as="geometry"/>
                </mxCell>
                <mxCell id="201" value="&lt;span lang=&quot;EN-US&quot; style=&quot;font-size: 12px ; font-family: &amp;#34;liberation serif&amp;#34; , serif&quot;&gt;ufw 0.35&lt;/span&gt;" style="rounded=1;whiteSpace=wrap;html=1;verticalAlign=top;gradientColor=#97d077;fillColor=#d5e8d4;strokeColor=#82b366;align=left;fontSize=12;" vertex="1" parent="1">
                    <mxGeometry x="2181" y="241" width="63" height="30" as="geometry"/>
                </mxCell>
                <mxCell id="202" value="&lt;span lang=&quot;EN-US&quot; style=&quot;font-family: &amp;#34;liberation serif&amp;#34; , serif&quot;&gt;&lt;font style=&quot;font-size: 12px&quot;&gt;node v12.13.1&lt;/font&gt;&lt;/span&gt;" style="rounded=1;whiteSpace=wrap;html=1;verticalAlign=top;gradientColor=#97d077;fillColor=#d5e8d4;strokeColor=#82b366;align=left;fontSize=12;" vertex="1" parent="1">
                    <mxGeometry x="2252" y="241" width="83" height="30" as="geometry"/>
                </mxCell>
                <mxCell id="203" value="&lt;span lang=&quot;EN-US&quot; style=&quot;font-family: &amp;#34;liberation serif&amp;#34; , serif&quot;&gt;&lt;font style=&quot;font-size: 12px&quot;&gt;&lt;b&gt;gdd1.gradido.com:&lt;br&gt;&lt;/b&gt;&lt;span&gt;- Authentication&amp;nbsp;&lt;br&gt;&lt;/span&gt;&lt;span&gt;- Balancing&lt;/span&gt;&lt;span&gt;&lt;br&gt;&lt;/span&gt;&lt;/font&gt;&lt;/span&gt;" style="rounded=1;whiteSpace=wrap;html=1;verticalAlign=top;fillColor=#e1d5e7;strokeColor=#9673a6;align=left;fontSize=12;" vertex="1" parent="1">
                    <mxGeometry x="1985" y="290" width="122.5" height="60" as="geometry"/>
                </mxCell>
                <mxCell id="204" value="&lt;span lang=&quot;EN-US&quot; style=&quot;font-family: &amp;#34;liberation serif&amp;#34; , serif&quot;&gt;&lt;font style=&quot;font-size: 12px&quot;&gt;login via password or ssh-key&lt;/font&gt;&lt;/span&gt;" style="rounded=1;whiteSpace=wrap;html=1;verticalAlign=top;align=left;fontSize=12;fillColor=#f5f5f5;strokeColor=#666666;fontColor=#333333;" vertex="1" parent="1">
                    <mxGeometry x="2202.5" y="290" width="110" height="40" as="geometry"/>
                </mxCell>
                <mxCell id="205" value="&lt;span lang=&quot;EN-US&quot; style=&quot;font-family: &amp;#34;liberation serif&amp;#34; , serif&quot;&gt;&lt;font style=&quot;font-size: 12px&quot;&gt;non standard ssh-port&lt;/font&gt;&lt;/span&gt;" style="rounded=1;whiteSpace=wrap;html=1;verticalAlign=top;align=left;fontSize=12;fillColor=#f5f5f5;strokeColor=#666666;fontColor=#333333;" vertex="1" parent="1">
                    <mxGeometry x="2322.5" y="290" width="110" height="40" as="geometry"/>
                </mxCell>
                <mxCell id="208" value="&lt;span lang=&quot;EN-US&quot; style=&quot;font-family: &amp;#34;liberation serif&amp;#34; , serif&quot;&gt;&lt;b&gt;&lt;span style=&quot;font-size: 12pt&quot;&gt;Provider?:&amp;nbsp;&lt;/span&gt;&lt;span lang=&quot;EN-US&quot; style=&quot;font-size: 12.0pt ; font-family: &amp;#34;liberation serif&amp;#34; , serif&quot;&gt;VPS Linux: Main Production Persistenz Server&lt;/span&gt;&lt;/b&gt;&lt;b style=&quot;font-size: 12pt&quot;&gt;&lt;br&gt;&lt;/b&gt;&lt;/span&gt;" style="rounded=1;whiteSpace=wrap;html=1;verticalAlign=top;fillColor=#f5f5f5;strokeColor=#666666;gradientColor=#b3b3b3;" vertex="1" parent="1">
                    <mxGeometry x="1977.5" y="930" width="470" height="310" as="geometry"/>
                </mxCell>
                <mxCell id="209" value="&lt;ul style=&quot;font-family: &amp;#34;liberation serif&amp;#34; , serif&quot;&gt;&lt;li&gt;&lt;span lang=&quot;EN-US&quot;&gt;&lt;b&gt;CPU:&lt;/b&gt;&amp;nbsp;1x&lt;/span&gt;&amp;nbsp;vCore (2,4 GHz)&lt;/li&gt;&lt;li&gt;&lt;span lang=&quot;EN-US&quot;&gt;&lt;b&gt;Arbeitsspeicher&lt;/b&gt;: 1&lt;/span&gt;&amp;nbsp;GB / kein Swap&lt;/li&gt;&lt;li&gt;&lt;span lang=&quot;EN-US&quot;&gt;&lt;b&gt;Persistenz:&lt;/b&gt;&amp;nbsp;?&lt;/span&gt;&lt;/li&gt;&lt;li&gt;&lt;b&gt;OS:&lt;/b&gt; Ubuntu 18.04.1 LTS&lt;/li&gt;&lt;li&gt;&lt;span lang=&quot;EN-US&quot; style=&quot;font-family: &amp;#34;liberation serif&amp;#34; , serif&quot;&gt;&lt;font style=&quot;font-size: 12px&quot;&gt;&lt;b&gt;IP/Port:&lt;/b&gt;&amp;nbsp;&lt;/font&gt;&lt;/span&gt;212.83.56.124: 17611&lt;br&gt;&lt;/li&gt;&lt;/ul&gt;" style="rounded=0;whiteSpace=wrap;html=1;verticalAlign=middle;labelPosition=center;verticalLabelPosition=middle;align=left;spacing=0;spacingTop=0;" vertex="1" parent="1">
                    <mxGeometry x="2042.5" y="961" width="365" height="109" as="geometry"/>
                </mxCell>
                <mxCell id="210" value="&lt;span lang=&quot;EN-US&quot; style=&quot;font-size: 12px ; font-family: &amp;#34;liberation serif&amp;#34; , serif&quot;&gt;nginx 1.14.0 (Ubuntu)&lt;br style=&quot;font-size: 12px&quot;&gt;Port: 80 + 443&lt;/span&gt;" style="rounded=1;whiteSpace=wrap;html=1;verticalAlign=top;gradientColor=#97d077;fillColor=#d5e8d4;strokeColor=#82b366;align=left;fontSize=12;" vertex="1" parent="1">
                    <mxGeometry x="1997.5" y="1081" width="120" height="40" as="geometry"/>
                </mxCell>
                <mxCell id="211" value="&lt;span lang=&quot;EN-US&quot; style=&quot;font-size: 12px ; font-family: &amp;#34;liberation serif&amp;#34; , serif&quot;&gt;php-fpm7.2&lt;/span&gt;" style="rounded=1;whiteSpace=wrap;html=1;verticalAlign=top;gradientColor=#97d077;fillColor=#d5e8d4;strokeColor=#82b366;align=left;fontSize=12;" vertex="1" parent="1">
                    <mxGeometry x="2124.5" y="1081" width="63" height="29" as="geometry"/>
                </mxCell>
                <mxCell id="212" value="&lt;span lang=&quot;EN-US&quot; style=&quot;font-size: 12px ; font-family: &amp;#34;liberation serif&amp;#34; , serif&quot;&gt;ufw 0.35&lt;/span&gt;" style="rounded=1;whiteSpace=wrap;html=1;verticalAlign=top;gradientColor=#97d077;fillColor=#d5e8d4;strokeColor=#82b366;align=left;fontSize=12;" vertex="1" parent="1">
                    <mxGeometry x="2193.5" y="1081" width="63" height="30" as="geometry"/>
                </mxCell>
                <mxCell id="213" value="&lt;span lang=&quot;EN-US&quot; style=&quot;font-family: &amp;#34;liberation serif&amp;#34; , serif&quot;&gt;mariadb&amp;nbsp; Ver 15.1 &lt;br&gt;Distrib 10.1.43-MariaDB, &lt;br&gt;Port: 3306&lt;/span&gt;" style="rounded=1;whiteSpace=wrap;html=1;verticalAlign=top;gradientColor=#97d077;fillColor=#d5e8d4;strokeColor=#82b366;align=left;fontSize=12;" vertex="1" parent="1">
                    <mxGeometry x="1997.5" y="1140" width="130" height="51.25" as="geometry"/>
                </mxCell>
                <mxCell id="214" value="&lt;span lang=&quot;EN-US&quot; style=&quot;font-family: &amp;#34;liberation serif&amp;#34; , serif&quot;&gt;&lt;font style=&quot;font-size: 12px&quot;&gt;node v12.13.1&lt;/font&gt;&lt;/span&gt;" style="rounded=1;whiteSpace=wrap;html=1;verticalAlign=top;gradientColor=#97d077;fillColor=#d5e8d4;strokeColor=#82b366;align=left;fontSize=12;" vertex="1" parent="1">
                    <mxGeometry x="2264.5" y="1081" width="83" height="30" as="geometry"/>
                </mxCell>
                <mxCell id="215" value="&lt;span lang=&quot;EN-US&quot; style=&quot;font-family: &amp;#34;liberation serif&amp;#34; , serif&quot;&gt;&lt;font style=&quot;font-size: 12px&quot;&gt;login via password or ssh-key&lt;/font&gt;&lt;/span&gt;" style="rounded=1;whiteSpace=wrap;html=1;verticalAlign=top;align=left;fontSize=12;fillColor=#f5f5f5;strokeColor=#666666;fontColor=#333333;" vertex="1" parent="1">
                    <mxGeometry x="2177.5" y="1121" width="110" height="40" as="geometry"/>
                </mxCell>
                <mxCell id="216" value="&lt;span lang=&quot;EN-US&quot; style=&quot;font-family: &amp;#34;liberation serif&amp;#34; , serif&quot;&gt;&lt;font style=&quot;font-size: 12px&quot;&gt;non standard ssh-port&lt;/font&gt;&lt;/span&gt;" style="rounded=1;whiteSpace=wrap;html=1;verticalAlign=top;align=left;fontSize=12;fillColor=#f5f5f5;strokeColor=#666666;fontColor=#333333;" vertex="1" parent="1">
                    <mxGeometry x="2297.5" y="1121" width="110" height="40" as="geometry"/>
                </mxCell>
                <mxCell id="217" value="&lt;span style=&quot;font-family: &amp;#34;liberation serif&amp;#34; , serif&quot;&gt;&lt;font style=&quot;font-size: 12px&quot;&gt;db backups&amp;nbsp;gelegentlich manuell, &lt;br&gt;download in verschlÃ¼sseltes TrueCrypt Volume auf&amp;nbsp;Arbeits-Laptop&lt;/font&gt;&lt;/span&gt;" style="rounded=1;whiteSpace=wrap;html=1;verticalAlign=top;align=left;fontSize=12;fillColor=#f5f5f5;strokeColor=#666666;fontColor=#333333;" vertex="1" parent="1">
                    <mxGeometry x="2177.5" y="1171" width="230" height="51" as="geometry"/>
                </mxCell>
                <mxCell id="220" value="" style="endArrow=none;html=1;strokeWidth=5;strokeColor=#FF0000;" edge="1" parent="1">
                    <mxGeometry width="50" height="50" relative="1" as="geometry">
                        <mxPoint x="2960" y="1361" as="sourcePoint"/>
                        <mxPoint x="3600" y="2471" as="targetPoint"/>
                    </mxGeometry>
                </mxCell>
                <mxCell id="221" value="" style="endArrow=none;html=1;strokeWidth=5;strokeColor=#FF0000;" edge="1" parent="1">
                    <mxGeometry width="50" height="50" relative="1" as="geometry">
                        <mxPoint x="3610" y="1361" as="sourcePoint"/>
                        <mxPoint x="2980" y="2431" as="targetPoint"/>
                    </mxGeometry>
                </mxCell>
                <mxCell id="222" value="&lt;font style=&quot;font-size: 24px;&quot;&gt;&lt;b style=&quot;font-size: 24px;&quot;&gt;Entwicklung / Test&lt;/b&gt;&lt;/font&gt;" style="rounded=0;whiteSpace=wrap;html=1;align=center;verticalAlign=top;fillColor=#dae8fc;strokeColor=#6c8ebf;fontSize=24;" vertex="1" parent="1">
                    <mxGeometry x="2960" y="40" width="1200" height="1240" as="geometry"/>
                </mxCell>
                <mxCell id="223" style="edgeStyle=orthogonalEdgeStyle;rounded=0;orthogonalLoop=1;jettySize=auto;html=1;entryX=0.5;entryY=0;entryDx=0;entryDy=0;" edge="1" parent="1" source="224" target="266">
                    <mxGeometry relative="1" as="geometry"/>
                </mxCell>
                <mxCell id="224" value="&lt;span lang=&quot;EN-US&quot; style=&quot;font-family: &amp;#34;liberation serif&amp;#34; , serif&quot;&gt;&lt;b style=&quot;font-size: 12pt&quot;&gt;STRATO:&amp;nbsp;&lt;/b&gt;&lt;span lang=&quot;EN-US&quot; style=&quot;font-size: 12.0pt ; font-family: &amp;#34;liberation serif&amp;#34; , serif&quot;&gt;&lt;b&gt;Root Server Linux C4-47: Staging&lt;/b&gt;&lt;/span&gt;&lt;b style=&quot;font-size: 12pt&quot;&gt;&lt;br&gt;&lt;/b&gt;&lt;/span&gt;" style="rounded=1;whiteSpace=wrap;html=1;verticalAlign=top;fillColor=#f5f5f5;strokeColor=#666666;gradientColor=#b3b3b3;" vertex="1" parent="1">
                    <mxGeometry x="3325" y="435" width="470" height="401" as="geometry"/>
                </mxCell>
                <mxCell id="225" value="&lt;ul style=&quot;font-family: &amp;#34;liberation serif&amp;#34; , serif&quot;&gt;&lt;li&gt;&lt;span lang=&quot;EN-US&quot;&gt;&lt;b&gt;CPU:&lt;/b&gt;&amp;nbsp;&lt;/span&gt;AMD Opteronâ„¢ 1385 (4 x 2,7 GHz)&lt;/li&gt;&lt;li&gt;&lt;span lang=&quot;EN-US&quot;&gt;&lt;b&gt;Arbeitsspeicher&lt;/b&gt;:&amp;nbsp;&lt;/span&gt;4 GB DDR 2 / 8 GB Swap&lt;/li&gt;&lt;li&gt;&lt;span lang=&quot;EN-US&quot;&gt;&lt;b&gt;Persistenz:&lt;/b&gt;&amp;nbsp;&lt;/span&gt;2 x 500 GB HDD (Raid 1)&lt;/li&gt;&lt;li&gt;&lt;b&gt;OS:&lt;/b&gt; Ubuntu 20.04 LTS 64bit&lt;/li&gt;&lt;li&gt;&lt;span lang=&quot;EN-US&quot; style=&quot;font-family: &amp;#34;liberation serif&amp;#34; , serif&quot;&gt;&lt;font style=&quot;font-size: 12px&quot;&gt;&lt;b&gt;IP/Port:&lt;/b&gt; 85.214.157.229:1618&lt;/font&gt;&lt;/span&gt;&lt;br&gt;&lt;/li&gt;&lt;/ul&gt;" style="rounded=0;whiteSpace=wrap;html=1;verticalAlign=middle;labelPosition=center;verticalLabelPosition=middle;align=left;spacing=0;spacingTop=0;" vertex="1" parent="1">
                    <mxGeometry x="3390" y="466" width="365" height="109" as="geometry"/>
                </mxCell>
                <mxCell id="226" value="&lt;span lang=&quot;EN-US&quot; style=&quot;font-size: 12px; font-family: &amp;quot;liberation serif&amp;quot;, serif;&quot;&gt;nginx 1.18.0 (Ubuntu)&lt;br style=&quot;font-size: 12px;&quot;&gt;Port: 80 + 443&lt;/span&gt;" style="rounded=1;whiteSpace=wrap;html=1;verticalAlign=top;gradientColor=#97d077;fillColor=#d5e8d4;strokeColor=#82b366;align=left;fontSize=12;" vertex="1" parent="1">
                    <mxGeometry x="3345" y="586" width="120" height="40" as="geometry"/>
                </mxCell>
                <mxCell id="227" value="&lt;span lang=&quot;EN-US&quot; style=&quot;font-size: 12px; font-family: &amp;quot;liberation serif&amp;quot;, serif;&quot;&gt;php-fpm7.4&lt;/span&gt;" style="rounded=1;whiteSpace=wrap;html=1;verticalAlign=top;gradientColor=#97d077;fillColor=#d5e8d4;strokeColor=#82b366;align=left;fontSize=12;" vertex="1" parent="1">
                    <mxGeometry x="3472" y="586" width="63" height="29" as="geometry"/>
                </mxCell>
                <mxCell id="228" value="&lt;span lang=&quot;EN-US&quot; style=&quot;font-size: 12px; font-family: &amp;quot;liberation serif&amp;quot;, serif;&quot;&gt;mariadb&amp;nbsp; Ver 15.1 &lt;br style=&quot;font-size: 12px;&quot;&gt;Distrib 10.3.31-MariaDB&lt;br style=&quot;font-size: 12px;&quot;&gt;Port: 3306&lt;/span&gt;" style="rounded=1;whiteSpace=wrap;html=1;verticalAlign=top;gradientColor=#97d077;fillColor=#d5e8d4;strokeColor=#82b366;align=left;fontSize=12;" vertex="1" parent="1">
                    <mxGeometry x="3565" y="634.75" width="130" height="50" as="geometry"/>
                </mxCell>
                <mxCell id="229" value="&lt;span lang=&quot;EN-US&quot; style=&quot;font-size: 12px; font-family: &amp;quot;liberation serif&amp;quot;, serif;&quot;&gt;ufw 0.36&lt;/span&gt;" style="rounded=1;whiteSpace=wrap;html=1;verticalAlign=top;gradientColor=#97d077;fillColor=#d5e8d4;strokeColor=#82b366;align=left;fontSize=12;" vertex="1" parent="1">
                    <mxGeometry x="3541" y="586" width="63" height="30" as="geometry"/>
                </mxCell>
                <mxCell id="230" value="&lt;span lang=&quot;EN-US&quot; style=&quot;font-size: 12px; font-family: &amp;quot;liberation serif&amp;quot;, serif;&quot;&gt;node v12.19.0&lt;/span&gt;" style="rounded=1;whiteSpace=wrap;html=1;verticalAlign=top;gradientColor=#97d077;fillColor=#d5e8d4;strokeColor=#82b366;align=left;fontSize=12;" vertex="1" parent="1">
                    <mxGeometry x="3615" y="586" width="80" height="30" as="geometry"/>
                </mxCell>
                <mxCell id="231" value="&lt;span lang=&quot;EN-US&quot; style=&quot;font-size: 12px; font-family: &amp;quot;liberation serif&amp;quot;, serif;&quot;&gt;Gradido Backend &lt;br style=&quot;font-size: 12px;&quot;&gt;Port: 4000&lt;/span&gt;" style="rounded=1;whiteSpace=wrap;html=1;verticalAlign=top;gradientColor=#97d077;fillColor=#d5e8d4;strokeColor=#82b366;align=left;fontSize=12;" vertex="1" parent="1">
                    <mxGeometry x="3345" y="634.75" width="90" height="51.25" as="geometry"/>
                </mxCell>
                <mxCell id="232" value="&lt;span lang=&quot;EN-US&quot; style=&quot;font-size: 12px; font-family: &amp;quot;liberation serif&amp;quot;, serif;&quot;&gt;Gradido Login Server &lt;br style=&quot;font-size: 12px;&quot;&gt;HTTP Port: 1200&lt;br style=&quot;font-size: 12px;&quot;&gt;JSON: 1201&lt;/span&gt;" style="rounded=1;whiteSpace=wrap;html=1;verticalAlign=top;gradientColor=#97d077;fillColor=#d5e8d4;strokeColor=#82b366;align=left;fontSize=12;" vertex="1" parent="1">
                    <mxGeometry x="3442" y="634.75" width="110" height="51" as="geometry"/>
                </mxCell>
                <mxCell id="233" value="&lt;span lang=&quot;EN-US&quot; style=&quot;font-size: 12px ; font-family: &amp;#34;liberation serif&amp;#34; , serif&quot;&gt;&lt;b&gt;gdt.gradido.net:&lt;/b&gt; GDT-Server for testing&lt;/span&gt;" style="rounded=1;whiteSpace=wrap;html=1;verticalAlign=top;fillColor=#e1d5e7;strokeColor=#9673a6;align=left;fontSize=12;" vertex="1" parent="1">
                    <mxGeometry x="3345" y="696" width="120" height="40" as="geometry"/>
                </mxCell>
                <mxCell id="234" value="&lt;span lang=&quot;EN-US&quot; style=&quot;font-family: &amp;#34;liberation serif&amp;#34; , serif&quot;&gt;&lt;font style=&quot;font-size: 12px&quot;&gt;&lt;b&gt;stage1.gradido.net:&lt;/b&gt; Auto-Deployed Gradido Setup on master branch&lt;/font&gt;&lt;/span&gt;" style="rounded=1;whiteSpace=wrap;html=1;verticalAlign=top;fillColor=#e1d5e7;strokeColor=#9673a6;align=left;fontSize=12;" vertex="1" parent="1">
                    <mxGeometry x="3345" y="746" width="120" height="70" as="geometry"/>
                </mxCell>
                <mxCell id="235" value="&lt;span lang=&quot;EN-US&quot; style=&quot;font-family: &amp;#34;liberation serif&amp;#34; , serif&quot;&gt;&lt;font style=&quot;font-size: 12px&quot;&gt;&lt;b&gt;stagelive.gradido.net:&lt;/b&gt; Test with Live Data (dbs deleted&lt;/font&gt;&lt;/span&gt;" style="rounded=1;whiteSpace=wrap;html=1;verticalAlign=top;fillColor=#e1d5e7;strokeColor=#9673a6;align=left;fontSize=12;" vertex="1" parent="1">
                    <mxGeometry x="3475" y="746" width="110" height="70" as="geometry"/>
                </mxCell>
                <mxCell id="236" value="&lt;span lang=&quot;EN-US&quot; style=&quot;font-family: &amp;#34;liberation serif&amp;#34; , serif&quot;&gt;&lt;font style=&quot;font-size: 12px&quot;&gt;&lt;b&gt;staging.gradido.net:&lt;/b&gt;&lt;/font&gt;&lt;/span&gt;" style="rounded=1;whiteSpace=wrap;html=1;verticalAlign=top;fillColor=#e1d5e7;strokeColor=#9673a6;align=left;fontSize=12;" vertex="1" parent="1">
                    <mxGeometry x="3475" y="696" width="110" height="40" as="geometry"/>
                </mxCell>
                <mxCell id="237" value="&lt;span lang=&quot;EN-US&quot; style=&quot;font-family: &amp;#34;liberation serif&amp;#34; , serif&quot;&gt;&lt;font style=&quot;font-size: 12px&quot;&gt;Login via ssh key or password&lt;/font&gt;&lt;/span&gt;" style="rounded=1;whiteSpace=wrap;html=1;verticalAlign=top;fillColor=#f5f5f5;strokeColor=#666666;align=left;fontSize=12;fontColor=#333333;" vertex="1" parent="1">
                    <mxGeometry x="3645" y="726" width="110" height="40" as="geometry"/>
                </mxCell>
                <mxCell id="238" value="&lt;span lang=&quot;EN-US&quot; style=&quot;font-family: &amp;#34;liberation serif&amp;#34; , serif&quot;&gt;&lt;font style=&quot;font-size: 12px&quot;&gt;non standard ssh-port&lt;/font&gt;&lt;/span&gt;" style="rounded=1;whiteSpace=wrap;html=1;verticalAlign=top;fillColor=#f5f5f5;strokeColor=#666666;align=left;fontSize=12;fontColor=#333333;" vertex="1" parent="1">
                    <mxGeometry x="3645" y="776" width="110" height="40" as="geometry"/>
                </mxCell>
                <mxCell id="255" style="edgeStyle=orthogonalEdgeStyle;rounded=0;orthogonalLoop=1;jettySize=auto;html=1;entryX=0.5;entryY=0;entryDx=0;entryDy=0;" edge="1" parent="1" source="257" target="224">
                    <mxGeometry relative="1" as="geometry"/>
                </mxCell>
                <mxCell id="257" value="&lt;span lang=&quot;EN-US&quot; style=&quot;font-family: &amp;#34;liberation serif&amp;#34; , serif&quot;&gt;&lt;b&gt;&lt;span style=&quot;font-size: 12pt&quot;&gt;Provider?:&amp;nbsp;&lt;/span&gt;&lt;span lang=&quot;EN-US&quot; style=&quot;font-size: 12.0pt ; font-family: &amp;#34;liberation serif&amp;#34; , serif&quot;&gt;VPS Linux: Main Production LoadBalancer&lt;/span&gt;&lt;/b&gt;&lt;b style=&quot;font-size: 12pt&quot;&gt;&lt;br&gt;&lt;/b&gt;&lt;/span&gt;" style="rounded=1;whiteSpace=wrap;html=1;verticalAlign=top;fillColor=#f5f5f5;strokeColor=#666666;gradientColor=#b3b3b3;" vertex="1" parent="1">
                    <mxGeometry x="3325" y="90" width="470" height="270" as="geometry"/>
                </mxCell>
                <mxCell id="258" value="&lt;ul style=&quot;font-family: &amp;#34;liberation serif&amp;#34; , serif&quot;&gt;&lt;li&gt;&lt;span lang=&quot;EN-US&quot;&gt;&lt;b&gt;CPU:&lt;/b&gt;&amp;nbsp;1x&lt;/span&gt;&amp;nbsp;vCore (2,4 GHz)&lt;/li&gt;&lt;li&gt;&lt;span lang=&quot;EN-US&quot;&gt;&lt;b&gt;Arbeitsspeicher&lt;/b&gt;: 1&lt;/span&gt;&amp;nbsp;GB / kein Swap&lt;/li&gt;&lt;li&gt;&lt;span lang=&quot;EN-US&quot;&gt;&lt;b&gt;Persistenz:&lt;/b&gt;&amp;nbsp;?&lt;/span&gt;&lt;/li&gt;&lt;li&gt;&lt;b&gt;OS:&lt;/b&gt; Ubuntu 18.04.1 LTS&lt;/li&gt;&lt;li&gt;&lt;span lang=&quot;EN-US&quot; style=&quot;font-family: &amp;#34;liberation serif&amp;#34; , serif&quot;&gt;&lt;font style=&quot;font-size: 12px&quot;&gt;&lt;b&gt;IP/Port:&lt;/b&gt;&amp;nbsp;&lt;/font&gt;&lt;/span&gt;212.83.56.124: 17611&lt;br&gt;&lt;/li&gt;&lt;/ul&gt;" style="rounded=0;whiteSpace=wrap;html=1;verticalAlign=middle;labelPosition=center;verticalLabelPosition=middle;align=left;spacing=0;spacingTop=0;" vertex="1" parent="1">
                    <mxGeometry x="3390" y="121" width="365" height="109" as="geometry"/>
                </mxCell>
                <mxCell id="259" value="&lt;span lang=&quot;EN-US&quot; style=&quot;font-size: 12px ; font-family: &amp;#34;liberation serif&amp;#34; , serif&quot;&gt;nginx 1.14.0 (Ubuntu)&lt;br style=&quot;font-size: 12px&quot;&gt;Port: 80 + 443&lt;/span&gt;" style="rounded=1;whiteSpace=wrap;html=1;verticalAlign=top;gradientColor=#97d077;fillColor=#d5e8d4;strokeColor=#82b366;align=left;fontSize=12;" vertex="1" parent="1">
                    <mxGeometry x="3345" y="241" width="120" height="40" as="geometry"/>
                </mxCell>
                <mxCell id="260" value="&lt;span lang=&quot;EN-US&quot; style=&quot;font-size: 12px ; font-family: &amp;#34;liberation serif&amp;#34; , serif&quot;&gt;php-fpm7.2&lt;/span&gt;" style="rounded=1;whiteSpace=wrap;html=1;verticalAlign=top;gradientColor=#97d077;fillColor=#d5e8d4;strokeColor=#82b366;align=left;fontSize=12;" vertex="1" parent="1">
                    <mxGeometry x="3472" y="241" width="63" height="29" as="geometry"/>
                </mxCell>
                <mxCell id="261" value="&lt;span lang=&quot;EN-US&quot; style=&quot;font-size: 12px ; font-family: &amp;#34;liberation serif&amp;#34; , serif&quot;&gt;ufw 0.35&lt;/span&gt;" style="rounded=1;whiteSpace=wrap;html=1;verticalAlign=top;gradientColor=#97d077;fillColor=#d5e8d4;strokeColor=#82b366;align=left;fontSize=12;" vertex="1" parent="1">
                    <mxGeometry x="3541" y="241" width="63" height="30" as="geometry"/>
                </mxCell>
                <mxCell id="262" value="&lt;span lang=&quot;EN-US&quot; style=&quot;font-family: &amp;#34;liberation serif&amp;#34; , serif&quot;&gt;&lt;font style=&quot;font-size: 12px&quot;&gt;node v12.13.1&lt;/font&gt;&lt;/span&gt;" style="rounded=1;whiteSpace=wrap;html=1;verticalAlign=top;gradientColor=#97d077;fillColor=#d5e8d4;strokeColor=#82b366;align=left;fontSize=12;" vertex="1" parent="1">
                    <mxGeometry x="3612" y="241" width="83" height="30" as="geometry"/>
                </mxCell>
                <mxCell id="263" value="&lt;span lang=&quot;EN-US&quot; style=&quot;font-family: &amp;#34;liberation serif&amp;#34; , serif&quot;&gt;&lt;font style=&quot;font-size: 12px&quot;&gt;&lt;b&gt;gdd1.gradido.com:&lt;br&gt;&lt;/b&gt;&lt;span&gt;- Authentication&amp;nbsp;&lt;br&gt;&lt;/span&gt;&lt;span&gt;- Balancing&lt;/span&gt;&lt;span&gt;&lt;br&gt;&lt;/span&gt;&lt;/font&gt;&lt;/span&gt;" style="rounded=1;whiteSpace=wrap;html=1;verticalAlign=top;fillColor=#e1d5e7;strokeColor=#9673a6;align=left;fontSize=12;" vertex="1" parent="1">
                    <mxGeometry x="3345" y="290" width="122.5" height="60" as="geometry"/>
                </mxCell>
                <mxCell id="264" value="&lt;span lang=&quot;EN-US&quot; style=&quot;font-family: &amp;#34;liberation serif&amp;#34; , serif&quot;&gt;&lt;font style=&quot;font-size: 12px&quot;&gt;login via password or ssh-key&lt;/font&gt;&lt;/span&gt;" style="rounded=1;whiteSpace=wrap;html=1;verticalAlign=top;align=left;fontSize=12;fillColor=#f5f5f5;strokeColor=#666666;fontColor=#333333;" vertex="1" parent="1">
                    <mxGeometry x="3562.5" y="290" width="110" height="40" as="geometry"/>
                </mxCell>
                <mxCell id="265" value="&lt;span lang=&quot;EN-US&quot; style=&quot;font-family: &amp;#34;liberation serif&amp;#34; , serif&quot;&gt;&lt;font style=&quot;font-size: 12px&quot;&gt;non standard ssh-port&lt;/font&gt;&lt;/span&gt;" style="rounded=1;whiteSpace=wrap;html=1;verticalAlign=top;align=left;fontSize=12;fillColor=#f5f5f5;strokeColor=#666666;fontColor=#333333;" vertex="1" parent="1">
                    <mxGeometry x="3682.5" y="290" width="110" height="40" as="geometry"/>
                </mxCell>
                <mxCell id="266" value="&lt;span lang=&quot;EN-US&quot; style=&quot;font-family: &amp;#34;liberation serif&amp;#34; , serif&quot;&gt;&lt;b&gt;&lt;span style=&quot;font-size: 12pt&quot;&gt;Provider?:&amp;nbsp;&lt;/span&gt;&lt;span lang=&quot;EN-US&quot; style=&quot;font-size: 12.0pt ; font-family: &amp;#34;liberation serif&amp;#34; , serif&quot;&gt;VPS Linux: Main Production Persistenz Server&lt;/span&gt;&lt;/b&gt;&lt;b style=&quot;font-size: 12pt&quot;&gt;&lt;br&gt;&lt;/b&gt;&lt;/span&gt;" style="rounded=1;whiteSpace=wrap;html=1;verticalAlign=top;fillColor=#f5f5f5;strokeColor=#666666;gradientColor=#b3b3b3;" vertex="1" parent="1">
                    <mxGeometry x="3337.5" y="930" width="470" height="310" as="geometry"/>
                </mxCell>
                <mxCell id="267" value="&lt;ul style=&quot;font-family: &amp;#34;liberation serif&amp;#34; , serif&quot;&gt;&lt;li&gt;&lt;span lang=&quot;EN-US&quot;&gt;&lt;b&gt;CPU:&lt;/b&gt;&amp;nbsp;1x&lt;/span&gt;&amp;nbsp;vCore (2,4 GHz)&lt;/li&gt;&lt;li&gt;&lt;span lang=&quot;EN-US&quot;&gt;&lt;b&gt;Arbeitsspeicher&lt;/b&gt;: 1&lt;/span&gt;&amp;nbsp;GB / kein Swap&lt;/li&gt;&lt;li&gt;&lt;span lang=&quot;EN-US&quot;&gt;&lt;b&gt;Persistenz:&lt;/b&gt;&amp;nbsp;?&lt;/span&gt;&lt;/li&gt;&lt;li&gt;&lt;b&gt;OS:&lt;/b&gt; Ubuntu 18.04.1 LTS&lt;/li&gt;&lt;li&gt;&lt;span lang=&quot;EN-US&quot; style=&quot;font-family: &amp;#34;liberation serif&amp;#34; , serif&quot;&gt;&lt;font style=&quot;font-size: 12px&quot;&gt;&lt;b&gt;IP/Port:&lt;/b&gt;&amp;nbsp;&lt;/font&gt;&lt;/span&gt;212.83.56.124: 17611&lt;br&gt;&lt;/li&gt;&lt;/ul&gt;" style="rounded=0;whiteSpace=wrap;html=1;verticalAlign=middle;labelPosition=center;verticalLabelPosition=middle;align=left;spacing=0;spacingTop=0;" vertex="1" parent="1">
                    <mxGeometry x="3402.5" y="961" width="365" height="109" as="geometry"/>
                </mxCell>
                <mxCell id="268" value="&lt;span lang=&quot;EN-US&quot; style=&quot;font-size: 12px ; font-family: &amp;#34;liberation serif&amp;#34; , serif&quot;&gt;nginx 1.14.0 (Ubuntu)&lt;br style=&quot;font-size: 12px&quot;&gt;Port: 80 + 443&lt;/span&gt;" style="rounded=1;whiteSpace=wrap;html=1;verticalAlign=top;gradientColor=#97d077;fillColor=#d5e8d4;strokeColor=#82b366;align=left;fontSize=12;" vertex="1" parent="1">
                    <mxGeometry x="3357.5" y="1081" width="120" height="40" as="geometry"/>
                </mxCell>
                <mxCell id="269" value="&lt;span lang=&quot;EN-US&quot; style=&quot;font-size: 12px ; font-family: &amp;#34;liberation serif&amp;#34; , serif&quot;&gt;php-fpm7.2&lt;/span&gt;" style="rounded=1;whiteSpace=wrap;html=1;verticalAlign=top;gradientColor=#97d077;fillColor=#d5e8d4;strokeColor=#82b366;align=left;fontSize=12;" vertex="1" parent="1">
                    <mxGeometry x="3484.5" y="1081" width="63" height="29" as="geometry"/>
                </mxCell>
                <mxCell id="270" value="&lt;span lang=&quot;EN-US&quot; style=&quot;font-size: 12px ; font-family: &amp;#34;liberation serif&amp;#34; , serif&quot;&gt;ufw 0.35&lt;/span&gt;" style="rounded=1;whiteSpace=wrap;html=1;verticalAlign=top;gradientColor=#97d077;fillColor=#d5e8d4;strokeColor=#82b366;align=left;fontSize=12;" vertex="1" parent="1">
                    <mxGeometry x="3553.5" y="1081" width="63" height="30" as="geometry"/>
                </mxCell>
                <mxCell id="271" value="&lt;span lang=&quot;EN-US&quot; style=&quot;font-family: &amp;#34;liberation serif&amp;#34; , serif&quot;&gt;mariadb&amp;nbsp; Ver 15.1 &lt;br&gt;Distrib 10.1.43-MariaDB, &lt;br&gt;Port: 3306&lt;/span&gt;" style="rounded=1;whiteSpace=wrap;html=1;verticalAlign=top;gradientColor=#97d077;fillColor=#d5e8d4;strokeColor=#82b366;align=left;fontSize=12;" vertex="1" parent="1">
                    <mxGeometry x="3357.5" y="1140" width="130" height="51.25" as="geometry"/>
                </mxCell>
                <mxCell id="272" value="&lt;span lang=&quot;EN-US&quot; style=&quot;font-family: &amp;#34;liberation serif&amp;#34; , serif&quot;&gt;&lt;font style=&quot;font-size: 12px&quot;&gt;node v12.13.1&lt;/font&gt;&lt;/span&gt;" style="rounded=1;whiteSpace=wrap;html=1;verticalAlign=top;gradientColor=#97d077;fillColor=#d5e8d4;strokeColor=#82b366;align=left;fontSize=12;" vertex="1" parent="1">
                    <mxGeometry x="3624.5" y="1081" width="83" height="30" as="geometry"/>
                </mxCell>
                <mxCell id="273" value="&lt;span lang=&quot;EN-US&quot; style=&quot;font-family: &amp;#34;liberation serif&amp;#34; , serif&quot;&gt;&lt;font style=&quot;font-size: 12px&quot;&gt;login via password or ssh-key&lt;/font&gt;&lt;/span&gt;" style="rounded=1;whiteSpace=wrap;html=1;verticalAlign=top;align=left;fontSize=12;fillColor=#f5f5f5;strokeColor=#666666;fontColor=#333333;" vertex="1" parent="1">
                    <mxGeometry x="3537.5" y="1121" width="110" height="40" as="geometry"/>
                </mxCell>
                <mxCell id="274" value="&lt;span lang=&quot;EN-US&quot; style=&quot;font-family: &amp;#34;liberation serif&amp;#34; , serif&quot;&gt;&lt;font style=&quot;font-size: 12px&quot;&gt;non standard ssh-port&lt;/font&gt;&lt;/span&gt;" style="rounded=1;whiteSpace=wrap;html=1;verticalAlign=top;align=left;fontSize=12;fillColor=#f5f5f5;strokeColor=#666666;fontColor=#333333;" vertex="1" parent="1">
                    <mxGeometry x="3657.5" y="1121" width="110" height="40" as="geometry"/>
                </mxCell>
                <mxCell id="275" value="&lt;span style=&quot;font-family: &amp;#34;liberation serif&amp;#34; , serif&quot;&gt;&lt;font style=&quot;font-size: 12px&quot;&gt;db backups&amp;nbsp;gelegentlich manuell, &lt;br&gt;download in verschlÃ¼sseltes TrueCrypt Volume auf&amp;nbsp;Arbeits-Laptop&lt;/font&gt;&lt;/span&gt;" style="rounded=1;whiteSpace=wrap;html=1;verticalAlign=top;align=left;fontSize=12;fillColor=#f5f5f5;strokeColor=#666666;fontColor=#333333;" vertex="1" parent="1">
                    <mxGeometry x="3537.5" y="1171" width="230" height="51" as="geometry"/>
                </mxCell>
                <mxCell id="276" value="" style="endArrow=none;dashed=1;html=1;dashPattern=1 3;strokeWidth=2;exitX=0;exitY=0.333;exitDx=0;exitDy=0;exitPerimeter=0;" edge="1" parent="1">
                    <mxGeometry width="50" height="50" relative="1" as="geometry">
                        <mxPoint x="1601.36" y="879.1599999999999" as="sourcePoint"/>
                        <mxPoint x="2800" y="880" as="targetPoint"/>
                        <Array as="points"/>
                    </mxGeometry>
                </mxCell>
                <mxCell id="277" value="" style="endArrow=none;dashed=1;html=1;dashPattern=1 3;strokeWidth=2;exitX=-0.001;exitY=0.143;exitDx=0;exitDy=0;exitPerimeter=0;" edge="1" parent="1">
                    <mxGeometry width="50" height="50" relative="1" as="geometry">
                        <mxPoint x="1599.9999999999993" y="400.3599999999997" as="sourcePoint"/>
                        <mxPoint x="2800" y="400" as="targetPoint"/>
                    </mxGeometry>
                </mxCell>
                <mxCell id="278" value="" style="endArrow=none;dashed=1;html=1;dashPattern=1 3;strokeWidth=2;exitX=0;exitY=0.333;exitDx=0;exitDy=0;exitPerimeter=0;" edge="1" parent="1">
                    <mxGeometry width="50" height="50" relative="1" as="geometry">
                        <mxPoint x="2961.359999999999" y="879.1599999999999" as="sourcePoint"/>
                        <mxPoint x="4160" y="880" as="targetPoint"/>
                        <Array as="points"/>
                    </mxGeometry>
                </mxCell>
                <mxCell id="279" value="" style="endArrow=none;dashed=1;html=1;dashPattern=1 3;strokeWidth=2;exitX=-0.001;exitY=0.143;exitDx=0;exitDy=0;exitPerimeter=0;" edge="1" parent="1">
                    <mxGeometry width="50" height="50" relative="1" as="geometry">
                        <mxPoint x="2959.999999999999" y="400.3599999999999" as="sourcePoint"/>
                        <mxPoint x="4160" y="400" as="targetPoint"/>
                    </mxGeometry>
                </mxCell>
                <mxCell id="280" value="" style="endArrow=none;html=1;strokeWidth=4;exitX=0;exitY=0.333;exitDx=0;exitDy=0;exitPerimeter=0;" edge="1" parent="1">
                    <mxGeometry width="50" height="50" relative="1" as="geometry">
                        <mxPoint x="80" y="1280.0000000000002" as="sourcePoint"/>
                        <mxPoint x="1440" y="1280.84" as="targetPoint"/>
                        <Array as="points"/>
                    </mxGeometry>
                </mxCell>
                <mxCell id="281" value="DMZ" style="text;html=1;strokeColor=none;fillColor=none;align=center;verticalAlign=middle;whiteSpace=wrap;rounded=0;fontSize=24;" vertex="1" parent="1">
                    <mxGeometry x="170" y="165.5" width="40" height="20" as="geometry"/>
                </mxCell>
                <mxCell id="282" value="DMZ" style="text;html=1;strokeColor=none;fillColor=none;align=center;verticalAlign=middle;whiteSpace=wrap;rounded=0;fontSize=24;" vertex="1" parent="1">
                    <mxGeometry x="1690" y="160" width="40" height="20" as="geometry"/>
                </mxCell>
                <mxCell id="283" value="DMZ" style="text;html=1;strokeColor=none;fillColor=none;align=center;verticalAlign=middle;whiteSpace=wrap;rounded=0;fontSize=24;" vertex="1" parent="1">
                    <mxGeometry x="3050" y="165.5" width="40" height="20" as="geometry"/>
                </mxCell>
            </root>
        </mxGraphModel>
    </diagram>
    <diagram id="Zar-6ZasfFidioh4BmVj" name="Seite-2">
        <mxGraphModel dx="1228" dy="800" grid="1" gridSize="10" guides="1" tooltips="1" connect="1" arrows="1" fold="1" page="1" pageScale="1" pageWidth="1654" pageHeight="1169" math="0" shadow="0">
            <root>
                <mxCell id="uKgAqf8bIy8Buk_wB0Zb-0"/>
                <mxCell id="uKgAqf8bIy8Buk_wB0Zb-1" parent="uKgAqf8bIy8Buk_wB0Zb-0"/>
                <mxCell id="uKgAqf8bIy8Buk_wB0Zb-23" style="edgeStyle=orthogonalEdgeStyle;rounded=0;orthogonalLoop=1;jettySize=auto;html=1;entryX=0.5;entryY=0;entryDx=0;entryDy=0;fontSize=24;strokeColor=#FF0000;strokeWidth=4;" edge="1" parent="uKgAqf8bIy8Buk_wB0Zb-1" source="uKgAqf8bIy8Buk_wB0Zb-2" target="uKgAqf8bIy8Buk_wB0Zb-22">
                    <mxGeometry relative="1" as="geometry">
                        <Array as="points">
                            <mxPoint x="125" y="120"/>
                        </Array>
                    </mxGeometry>
                </mxCell>
                <mxCell id="uKgAqf8bIy8Buk_wB0Zb-25" style="edgeStyle=orthogonalEdgeStyle;rounded=0;orthogonalLoop=1;jettySize=auto;html=1;entryX=0;entryY=0.5;entryDx=0;entryDy=0;fontSize=24;strokeColor=#FF0000;strokeWidth=4;" edge="1" parent="uKgAqf8bIy8Buk_wB0Zb-1" source="uKgAqf8bIy8Buk_wB0Zb-2" target="uKgAqf8bIy8Buk_wB0Zb-4">
                    <mxGeometry relative="1" as="geometry">
                        <Array as="points">
                            <mxPoint x="320" y="210"/>
                        </Array>
                    </mxGeometry>
                </mxCell>
                <mxCell id="uKgAqf8bIy8Buk_wB0Zb-2" value="LoginServer" style="rounded=0;whiteSpace=wrap;html=1;fontSize=24;" vertex="1" parent="uKgAqf8bIy8Buk_wB0Zb-1">
                    <mxGeometry x="220" y="80" width="180" height="80" as="geometry"/>
                </mxCell>
                <mxCell id="uKgAqf8bIy8Buk_wB0Zb-19" style="edgeStyle=orthogonalEdgeStyle;rounded=0;orthogonalLoop=1;jettySize=auto;html=1;fontSize=24;strokeColor=#FF0000;strokeWidth=4;" edge="1" parent="uKgAqf8bIy8Buk_wB0Zb-1" source="uKgAqf8bIy8Buk_wB0Zb-3" target="uKgAqf8bIy8Buk_wB0Zb-2">
                    <mxGeometry relative="1" as="geometry"/>
                </mxCell>
                <mxCell id="uKgAqf8bIy8Buk_wB0Zb-3" value="NodeServer" style="rounded=0;whiteSpace=wrap;html=1;fontSize=24;" vertex="1" parent="uKgAqf8bIy8Buk_wB0Zb-1">
                    <mxGeometry x="480" y="80" width="180" height="80" as="geometry"/>
                </mxCell>
                <mxCell id="uKgAqf8bIy8Buk_wB0Zb-15" style="edgeStyle=orthogonalEdgeStyle;rounded=0;orthogonalLoop=1;jettySize=auto;html=1;entryX=1;entryY=0.5;entryDx=0;entryDy=0;fontSize=24;strokeColor=#FF0000;strokeWidth=4;" edge="1" parent="uKgAqf8bIy8Buk_wB0Zb-1" source="uKgAqf8bIy8Buk_wB0Zb-4" target="uKgAqf8bIy8Buk_wB0Zb-3">
                    <mxGeometry relative="1" as="geometry">
                        <Array as="points">
                            <mxPoint x="930" y="120"/>
                        </Array>
                    </mxGeometry>
                </mxCell>
                <mxCell id="uKgAqf8bIy8Buk_wB0Zb-4" value="IOTA" style="shape=process;whiteSpace=wrap;html=1;backgroundOutline=1;fontSize=24;" vertex="1" parent="uKgAqf8bIy8Buk_wB0Zb-1">
                    <mxGeometry x="870" y="180" width="120" height="60" as="geometry"/>
                </mxCell>
                <mxCell id="uKgAqf8bIy8Buk_wB0Zb-21" style="edgeStyle=orthogonalEdgeStyle;rounded=0;orthogonalLoop=1;jettySize=auto;html=1;entryX=0;entryY=0.5;entryDx=0;entryDy=0;fontSize=24;strokeColor=#FF0000;strokeWidth=4;" edge="1" parent="uKgAqf8bIy8Buk_wB0Zb-1" source="uKgAqf8bIy8Buk_wB0Zb-5" target="uKgAqf8bIy8Buk_wB0Zb-10">
                    <mxGeometry relative="1" as="geometry">
                        <Array as="points">
                            <mxPoint x="120" y="620"/>
                        </Array>
                    </mxGeometry>
                </mxCell>
                <mxCell id="uKgAqf8bIy8Buk_wB0Zb-28" value="1. TxDaten" style="edgeLabel;html=1;align=center;verticalAlign=middle;resizable=0;points=[];fontSize=24;" vertex="1" connectable="0" parent="uKgAqf8bIy8Buk_wB0Zb-21">
                    <mxGeometry x="-0.3094" y="-1" relative="1" as="geometry">
                        <mxPoint as="offset"/>
                    </mxGeometry>
                </mxCell>
                <mxCell id="uKgAqf8bIy8Buk_wB0Zb-27" style="edgeStyle=orthogonalEdgeStyle;rounded=0;orthogonalLoop=1;jettySize=auto;html=1;entryX=0.5;entryY=1;entryDx=0;entryDy=0;fontSize=24;strokeColor=#FF0000;strokeWidth=4;" edge="1" parent="uKgAqf8bIy8Buk_wB0Zb-1" source="uKgAqf8bIy8Buk_wB0Zb-5" target="uKgAqf8bIy8Buk_wB0Zb-10">
                    <mxGeometry relative="1" as="geometry">
                        <Array as="points">
                            <mxPoint x="70" y="690"/>
                            <mxPoint x="600" y="690"/>
                        </Array>
                    </mxGeometry>
                </mxCell>
                <mxCell id="uKgAqf8bIy8Buk_wB0Zb-30" value="3. Signierung" style="edgeLabel;html=1;align=center;verticalAlign=middle;resizable=0;points=[];fontSize=24;" vertex="1" connectable="0" parent="uKgAqf8bIy8Buk_wB0Zb-27">
                    <mxGeometry x="0.1067" y="3" relative="1" as="geometry">
                        <mxPoint as="offset"/>
                    </mxGeometry>
                </mxCell>
                <mxCell id="uKgAqf8bIy8Buk_wB0Zb-5" value="Apollo-Server" style="rounded=0;whiteSpace=wrap;html=1;fontSize=24;" vertex="1" parent="uKgAqf8bIy8Buk_wB0Zb-1">
                    <mxGeometry x="20" y="400" width="180" height="80" as="geometry"/>
                </mxCell>
                <mxCell id="uKgAqf8bIy8Buk_wB0Zb-17" style="edgeStyle=orthogonalEdgeStyle;rounded=0;orthogonalLoop=1;jettySize=auto;html=1;entryX=0.5;entryY=1;entryDx=0;entryDy=0;fontSize=24;strokeColor=#FF0000;strokeWidth=4;" edge="1" parent="uKgAqf8bIy8Buk_wB0Zb-1" source="uKgAqf8bIy8Buk_wB0Zb-10" target="uKgAqf8bIy8Buk_wB0Zb-14">
                    <mxGeometry relative="1" as="geometry"/>
                </mxCell>
                <mxCell id="uKgAqf8bIy8Buk_wB0Zb-26" style="edgeStyle=orthogonalEdgeStyle;rounded=0;orthogonalLoop=1;jettySize=auto;html=1;entryX=0.75;entryY=1;entryDx=0;entryDy=0;fontSize=24;strokeColor=#FF0000;strokeWidth=4;" edge="1" parent="uKgAqf8bIy8Buk_wB0Zb-1" source="uKgAqf8bIy8Buk_wB0Zb-10" target="uKgAqf8bIy8Buk_wB0Zb-5">
                    <mxGeometry relative="1" as="geometry">
                        <Array as="points">
                            <mxPoint x="570" y="510"/>
                            <mxPoint x="155" y="510"/>
                        </Array>
                    </mxGeometry>
                </mxCell>
                <mxCell id="uKgAqf8bIy8Buk_wB0Zb-29" value="2. BinÃ¤rDaten" style="edgeLabel;html=1;align=center;verticalAlign=middle;resizable=0;points=[];fontSize=24;" vertex="1" connectable="0" parent="uKgAqf8bIy8Buk_wB0Zb-26">
                    <mxGeometry x="-0.1107" relative="1" as="geometry">
                        <mxPoint as="offset"/>
                    </mxGeometry>
                </mxCell>
                <mxCell id="uKgAqf8bIy8Buk_wB0Zb-10" value="LoginServer" style="rounded=0;whiteSpace=wrap;html=1;fontSize=24;" vertex="1" parent="uKgAqf8bIy8Buk_wB0Zb-1">
                    <mxGeometry x="510" y="580" width="180" height="80" as="geometry"/>
                </mxCell>
                <mxCell id="uKgAqf8bIy8Buk_wB0Zb-12" value="NodeServer" style="rounded=0;whiteSpace=wrap;html=1;fontSize=24;" vertex="1" parent="uKgAqf8bIy8Buk_wB0Zb-1">
                    <mxGeometry x="510" y="400" width="180" height="80" as="geometry"/>
                </mxCell>
                <mxCell id="uKgAqf8bIy8Buk_wB0Zb-16" style="edgeStyle=orthogonalEdgeStyle;rounded=0;orthogonalLoop=1;jettySize=auto;html=1;entryX=1;entryY=0.5;entryDx=0;entryDy=0;fontSize=24;strokeColor=#FF0000;strokeWidth=4;" edge="1" parent="uKgAqf8bIy8Buk_wB0Zb-1" source="uKgAqf8bIy8Buk_wB0Zb-14" target="uKgAqf8bIy8Buk_wB0Zb-12">
                    <mxGeometry relative="1" as="geometry">
                        <Array as="points">
                            <mxPoint x="960" y="440"/>
                        </Array>
                    </mxGeometry>
                </mxCell>
                <mxCell id="uKgAqf8bIy8Buk_wB0Zb-14" value="IOTA" style="shape=process;whiteSpace=wrap;html=1;backgroundOutline=1;fontSize=24;" vertex="1" parent="uKgAqf8bIy8Buk_wB0Zb-1">
                    <mxGeometry x="900" y="500" width="120" height="60" as="geometry"/>
                </mxCell>
                <mxCell id="uKgAqf8bIy8Buk_wB0Zb-24" style="edgeStyle=orthogonalEdgeStyle;rounded=0;orthogonalLoop=1;jettySize=auto;html=1;fontSize=24;strokeColor=#FF0000;strokeWidth=4;" edge="1" parent="uKgAqf8bIy8Buk_wB0Zb-1" source="uKgAqf8bIy8Buk_wB0Zb-22" target="uKgAqf8bIy8Buk_wB0Zb-3">
                    <mxGeometry relative="1" as="geometry"/>
                </mxCell>
                <mxCell id="uKgAqf8bIy8Buk_wB0Zb-22" value="CommunityServer" style="rounded=0;whiteSpace=wrap;html=1;fontSize=24;" vertex="1" parent="uKgAqf8bIy8Buk_wB0Zb-1">
                    <mxGeometry x="20" y="200" width="210" height="80" as="geometry"/>
                </mxCell>
            </root>
        </mxGraphModel>
    </diagram>
</mxfile>